<svg width="177" height="101" viewBox="0 0 177 101" fill="none" xmlns="http://www.w3.org/2000/svg">
<path d="M39.5217 50.0669C34.4628 48.6316 14.3712 36.7887 14.9031 35.4032C15.4627 33.9513 12.3986 27.4451 10.2376 28.7087C7.3341 30.4045 8.40351 35.4863 8.40351 35.4863C8.40351 35.4863 0.995198 38.5898 3.52743 41.937C4.70212 43.4888 10.4426 41.1612 11.4067 41.7264C12.2933 42.2474 32.7008 55.6919 35.8148 57.8088" stroke="#079D49" stroke-width="4" stroke-miterlimit="10"/>
<path d="M108.419 53.8243C119.09 51.796 106.745 31.6681 96.0843 30.6484C85.4178 29.6342 81.8938 15.824 76.929 18.2956C71.9643 20.7673 64.8995 46.0491 60.4556 50.6377C57.1366 54.0626 47.2736 51.1143 42.4917 49.4074C41.0067 48.8754 39.3777 49.6513 38.8402 51.131L35.9644 57.2879C35.5821 58.1081 35.8481 59.0835 36.5906 59.5933C39.2447 61.411 44.83 67.302 49.9444 71.1647" stroke="#079D49" stroke-width="4" stroke-miterlimit="10"/>
<path d="M132.472 62.4807C126.621 56.8613 124.737 47.1741 129.253 41.2998L155.157 61.2116C153.522 63.3397 149.472 65.2183 146.823 66.0219" stroke="#079D49" stroke-width="1.4899" stroke-miterlimit="10"/>
<path d="M128.422 60.3471C124.354 54.6501 124.765 47.1409 129.253 41.2998L155.157 61.2116C153.617 63.2177 150.563 65.706 148.447 66.7756" stroke="#079D49" stroke-width="1.4899" stroke-miterlimit="10"/>
<path d="M131.779 43.245L132.489 43.7881C132.129 45.8442 132.339 49.1305 132.472 50.6766C132.511 51.12 132.943 51.4137 133.37 51.2862L138.257 49.8121C138.595 49.7068 138.961 49.8786 139.099 50.2056C139.26 50.5824 139.066 51.0202 138.678 51.1477L133.591 52.8158C133.137 52.9654 132.965 53.514 133.248 53.8964L135.802 57.3324C136.079 57.7037 136.633 57.7092 136.916 57.3435L140.18 53.0984C140.412 52.7936 140.856 52.7327 141.16 52.9709L141.393 53.1483C141.698 53.381 141.759 53.8244 141.521 54.1292L138.163 58.5017C137.869 58.8841 138.041 59.4438 138.501 59.5934L142.69 60.9401C143.133 61.0842 143.593 60.7572 143.598 60.2917L143.704 55.3096C143.709 54.9438 144.003 54.6446 144.369 54.628L144.468 54.6224C144.845 54.6058 145.172 54.8884 145.2 55.2653L145.599 60.4801C145.626 60.8736 145.976 61.1673 146.369 61.123C149.001 60.8126 151.444 59.5436 152.325 59.0448L152.63 59.2831C152.952 59.5269 152.996 59.9924 152.736 60.2972C148.885 64.6975 142.257 65.4234 135.392 60.1476C128.527 54.8718 127.524 48.277 130.782 43.4224C130.998 43.0733 131.458 43.0012 131.779 43.245Z" stroke="#079D49" stroke-width="1.4899" stroke-miterlimit="10"/>
<path d="M111.566 61.5277C111.228 60.8017 110.812 60.0425 110.408 59.7155C110.308 59.6379 110.164 59.6989 110.142 59.8264C110.086 60.1866 110.025 60.9236 110.241 61.9212" stroke="#079D49" stroke-width="1.4899" stroke-miterlimit="10"/>
<path d="M111.261 62.7248C110.951 62.4588 110.552 62.2149 110.064 62.093C109.139 61.8602 108.297 62.1706 107.82 62.4144C107.676 62.4865 107.709 62.6971 107.864 62.7248C108.59 62.8578 109.97 63.1903 110.629 64.3541" stroke="#079D49" stroke-width="1.4899" stroke-miterlimit="10"/>
<path d="M111.244 64.1543C111.244 64.1543 111.023 62.4529 112.02 61.4443C112.646 60.8126 113.372 60.5022 113.827 60.3526C113.976 60.3027 114.104 60.4745 114.015 60.602C113.566 61.2781 112.685 62.7356 112.846 63.6223L111.244 64.1543Z" stroke="#079D49" stroke-width="1.4899" stroke-miterlimit="10"/>
<path d="M110.701 77.9702C113.389 77.7153 116.082 77.4937 118.78 77.3773C121.617 75.1938 121.617 72.1569 121.03 70.3613C120.315 68.1889 118.198 66.8921 117.334 66.4599C116.47 66.0221 115.001 65.8281 114.037 65.4901C113.367 65.2573 113.2 64.4039 113.162 63.9051C113.145 63.7167 112.957 63.5947 112.779 63.6502L110.823 64.2986C110.64 64.3595 110.563 64.5756 110.668 64.7308C111.034 65.285 111.228 66.0997 110.779 66.615C109.687 67.8675 108.917 68.9204 108.313 70.3225C107.659 71.8465 107.582 74.0688 108.424 75.5374C109.067 76.679 109.865 77.4493 110.701 77.9702Z" stroke="#079D49" stroke-width="1.4899" stroke-miterlimit="10"/>
<path d="M116.907 77.3053C117.578 76.4075 117.622 75.072 117.123 74.0246C116.442 72.6003 116.137 71.37 113.594 70.3669C113.489 70.3226 113.361 70.3614 113.3 70.4556C112.885 71.0707 111.721 73.7198 112.513 75.6539C112.835 76.4408 112.934 77.1502 113.361 77.5713" stroke="#079D49" stroke-width="1.4899" stroke-miterlimit="10"/>
<path d="M118.243 77.1611C119.284 75.7646 119.356 73.6808 118.575 72.046C117.517 69.8293 116.492 68.6156 112.53 67.0528C112.364 66.9863 112.17 67.0417 112.076 67.1858C111.427 68.1501 109.222 71.7578 110.463 74.767C110.967 75.9918 111.56 76.9173 112.225 77.5657" stroke="#079D49" stroke-width="1.4899" stroke-miterlimit="10"/>
<path d="M98.2896 73.6366C98.3506 73.099 98.2287 72.5559 97.9683 72.0904C97.6857 71.575 97.2535 71.2591 96.7825 70.9321C96.8767 70.655 97.0928 70.3724 97.259 70.1341C97.4086 69.918 97.5693 69.7129 97.7466 69.519C98.0237 69.2142 98.334 68.9482 98.6886 68.732C99.0709 68.5048 99.5142 68.3275 99.963 68.3164C99.9963 68.3164 100.029 68.3164 100.063 68.3164C100.151 67.934 99.7414 67.5405 99.7414 67.5405C97.5804 67.5572 96.1286 70.3114 95.9458 70.6883C94.8376 70.5775 93.7793 71.2757 93.3859 72.2455" stroke="#079D49" stroke-width="1.1916" stroke-miterlimit="10"/>
<path d="M96.849 74.3127C96.9709 73.7862 96.317 73.1323 96.317 73.1323C95.8738 72.8774 94.8321 73.4426 94.8321 73.4426C94.7379 72.7776 93.4302 72.2622 93.3803 72.2456C93.336 72.3509 93.2972 72.4617 93.2695 72.5781C92.9703 73.8694 92.1668 75.216 90.5101 76.7733C89.1082 78.0923 86.0329 79.2339 84.62 79.716C84.4094 79.7881 84.4316 80.0929 84.6532 80.1372C92.6267 81.7609 97.9461 75.1994 98.2287 73.9913C98.2564 73.8749 98.2342 73.753 98.2342 73.753L96.849 74.3127Z" stroke="#079D49" stroke-width="1.1916" stroke-miterlimit="10"/>
<path d="M89.8396 69.5521C89.6567 69.0422 89.3077 68.61 88.8699 68.3052C88.3879 67.9727 87.8615 67.8729 87.2963 67.7898C87.2575 67.5016 87.324 67.1525 87.3683 66.8643C87.4071 66.6038 87.4625 66.3489 87.5345 66.094C87.6509 65.7005 87.8116 65.3181 88.0332 64.9745C88.2715 64.6032 88.5929 64.2486 88.9918 64.038C89.0195 64.0213 89.0528 64.0047 89.0805 63.9936C88.9918 63.6112 88.4488 63.4395 88.4488 63.4395C86.515 64.4093 86.4374 67.5238 86.4374 67.945C85.3957 68.3329 84.753 69.4302 84.8305 70.472" stroke="#079D49" stroke-width="1.1916" stroke-miterlimit="10"/>
<path d="M88.8422 70.799C88.7203 70.2725 87.8449 69.9733 87.8449 69.9733C87.3351 69.94 86.6536 70.9043 86.6536 70.9043C86.2768 70.3501 84.8749 70.4665 84.8195 70.472C84.825 70.5884 84.8416 70.7048 84.8693 70.8156C85.1686 72.1069 85.0467 73.6697 84.2488 75.7977C83.5728 77.5988 81.3231 79.9873 80.2703 81.0403C80.1096 81.201 80.2703 81.4615 80.4864 81.4005C88.3546 79.3279 90.2275 71.0872 89.9449 69.8846C89.9172 69.7682 89.8452 69.6685 89.8452 69.6685L88.8422 70.799Z" stroke="#079D49" stroke-width="1.1916" stroke-miterlimit="10"/>
<path d="M168.184 92.7002H42.9738C41.7105 92.7002 40.6909 91.6749 40.6909 90.4169V84.8252C40.6909 83.5617 41.716 82.542 42.9738 82.542H168.184C169.447 82.542 170.467 83.5672 170.467 84.8252V90.4169C170.467 91.6749 169.447 92.7002 168.184 92.7002Z" stroke="#079D49" stroke-width="4" stroke-miterlimit="10"/>
<path d="M45.6889 82.5366C45.6889 82.5366 44.1984 76.6457 46.8802 73.4813C49.5621 70.3169 53.2469 70.4887 53.2469 69.5854C53.2469 68.6765 54.9202 65.102 59.6134 64.4259C64.3067 63.7498 68.3294 61.6051 71.0113 60.7074C73.6931 59.8096 78.7188 52.7936 86.0939 54.3342C93.4689 55.8749 102.517 56.4124 106.878 54.3342C111.239 52.2561 119.617 54.8829 122.969 56.8558C126.322 58.8287 132.688 63.9549 137.049 63.3619C141.41 62.7689 153.81 68.9758 154.813 70.9653C155.816 72.9493 165.203 72.1734 165.873 82.5422" stroke="#079D49" stroke-width="3" stroke-miterlimit="10"/>
<path d="M123.806 67.0749C124.69 67.0749 125.407 66.467 125.407 65.7171C125.407 64.9673 124.69 64.3594 123.806 64.3594C122.922 64.3594 122.205 64.9673 122.205 65.7171C122.205 66.467 122.922 67.0749 123.806 67.0749Z" stroke="#079D49" stroke-width="1.3942" stroke-miterlimit="10"/>
<path d="M156.027 78.9289C156.911 78.9289 157.628 78.321 157.628 77.5711C157.628 76.8213 156.911 76.2134 156.027 76.2134C155.142 76.2134 154.425 76.8213 154.425 77.5711C154.425 78.321 155.142 78.9289 156.027 78.9289Z" stroke="#079D49" stroke-width="1.3942" stroke-miterlimit="10"/>
<path d="M76.4414 76.1579C77.3258 76.1579 78.0428 75.55 78.0428 74.8001C78.0428 74.0503 77.3258 73.4424 76.4414 73.4424C75.557 73.4424 74.8401 74.0503 74.8401 74.8001C74.8401 75.55 75.557 76.1579 76.4414 76.1579Z" stroke="#079D49" stroke-width="1.3942" stroke-miterlimit="10"/>
<path d="M54.1555 78.2087C55.0399 78.2087 55.7569 77.6008 55.7569 76.8509C55.7569 76.1011 55.0399 75.4932 54.1555 75.4932C53.2711 75.4932 52.5542 76.1011 52.5542 76.8509C52.5542 77.6008 53.2711 78.2087 54.1555 78.2087Z" stroke="#079D49" stroke-width="1.3942" stroke-miterlimit="10"/>
<path d="M142.956 75.3211C144.305 75.3211 145.399 74.3931 145.399 73.2484C145.399 72.1037 144.305 71.1758 142.956 71.1758C141.606 71.1758 140.512 72.1037 140.512 73.2484C140.512 74.3931 141.606 75.3211 142.956 75.3211Z" stroke="#079D49" stroke-width="1.4899" stroke-miterlimit="10"/>
<path d="M126.249 79.0007C127.599 79.0007 128.693 78.0728 128.693 76.9281C128.693 75.7834 127.599 74.8555 126.249 74.8555C124.9 74.8555 123.806 75.7834 123.806 76.9281C123.806 78.0728 124.9 79.0007 126.249 79.0007Z" stroke="#079D49" stroke-width="1.4899" stroke-miterlimit="10"/>
<path d="M95.4803 65.2185C96.8299 65.2185 97.9239 64.2906 97.9239 63.1459C97.9239 62.0012 96.8299 61.0732 95.4803 61.0732C94.1308 61.0732 93.0367 62.0012 93.0367 63.1459C93.0367 64.2906 94.1308 65.2185 95.4803 65.2185Z" stroke="#079D49" stroke-width="1.4899" stroke-miterlimit="10"/>
<path d="M64.4563 72.4226C65.8058 72.4226 66.8999 71.4947 66.8999 70.35C66.8999 69.2053 65.8058 68.2773 64.4563 68.2773C63.1067 68.2773 62.0127 69.2053 62.0127 70.35C62.0127 71.4947 63.1067 72.4226 64.4563 72.4226Z" stroke="#079D49" stroke-width="1.4899" stroke-miterlimit="10"/>
</svg>
