<svg width="130" height="103" viewBox="0 0 130 103" fill="none" xmlns="http://www.w3.org/2000/svg">
<path fill-rule="evenodd" clip-rule="evenodd" d="M49.1382 27.8282L51.0396 29.5478C54.7322 24.4499 52.8687 19.3013 51.2243 14.7579L51.2237 14.7561C49.6315 10.3594 48.2567 6.56247 51.0396 2.71919L49.1382 0.999512C45.4488 6.09593 47.312 11.2424 48.9567 15.7832L48.9582 15.7873C50.5496 20.1845 51.9239 23.9818 49.1382 27.8282ZM64.0704 29.5478L62.1689 27.8282C64.9538 23.9812 63.5788 20.1835 61.987 15.787L61.9861 15.7846L61.9851 15.7818C60.3419 11.2403 58.4802 6.09488 62.1689 0.999512L64.0704 2.71919C61.2875 6.56247 62.662 10.3609 64.2543 14.7568L64.2562 14.762C65.8992 19.3045 67.7607 24.4511 64.0704 29.5478ZM77.0984 29.5478L75.1972 27.8282C77.982 23.981 76.6068 20.183 75.0148 15.7862L75.0142 15.7846L75.0131 15.7818C73.3701 11.2402 71.5085 6.09486 75.1972 0.999512L77.0984 2.71919C74.3158 6.56247 75.6903 10.3609 77.2823 14.7568L77.2841 14.7616C78.9273 19.3042 80.789 24.451 77.0984 29.5478ZM81.914 102H47.5137C44.1718 102 41.4535 98.9598 41.4535 95.223C41.4535 94.7499 41.4989 94.2813 41.5883 93.8199C23.0614 86.2498 8.5305 70.1349 1.61622 49.4211L1.00003 47.5748H128.429L127.812 49.4211C120.9 70.1357 106.37 86.2498 87.8405 93.8199C87.9301 94.2828 87.9754 94.7521 87.9754 95.223C87.9754 98.9598 85.2557 102 81.914 102ZM4.54975 50.3098C11.5893 69.7836 25.7045 84.8004 43.5222 91.686L44.7953 92.1771L44.7565 92.272H69.6823V95.007H43.905C43.9013 95.0789 43.8995 95.1509 43.8995 95.223C43.8995 97.4525 45.5203 99.2647 47.5137 99.2647H81.914C83.9074 99.2647 85.5293 97.4525 85.5293 95.223C85.5293 94.6586 85.4159 94.0937 85.1926 93.5447L84.636 92.1771L85.9068 91.686C103.726 84.8004 117.842 69.7836 124.88 50.3098H4.54975ZM84.3087 86.5164L83.5109 83.9306C96.2236 79.0196 107.038 69.257 113.96 56.4413L116.055 57.8546C108.836 71.2178 97.5615 81.3969 84.3087 86.5164Z" fill="#089D49"/>
<path d="M51.0396 29.5478L50.7042 29.9186L51.1176 30.2925L51.4446 29.8411L51.0396 29.5478ZM49.1382 27.8282L48.7333 27.5349L48.4702 27.8982L48.8029 28.1991L49.1382 27.8282ZM51.2243 14.7579L50.7542 14.9281L50.7542 14.9281L51.2243 14.7579ZM51.2237 14.7561L51.6938 14.586L51.6938 14.5859L51.2237 14.7561ZM51.0396 2.71919L51.4446 3.01243L51.7076 2.64919L51.375 2.34836L51.0396 2.71919ZM49.1382 0.999512L49.4736 0.628684L49.0602 0.254717L48.7332 0.706313L49.1382 0.999512ZM48.9567 15.7832L48.4866 15.9535L48.4866 15.9535L48.9567 15.7832ZM48.9582 15.7873L49.4284 15.6172L49.4283 15.617L48.9582 15.7873ZM62.1689 27.8282L61.7638 27.535L61.5009 27.8983L61.8335 28.1991L62.1689 27.8282ZM64.0704 29.5478L63.735 29.9186L64.1484 30.2925L64.4754 29.841L64.0704 29.5478ZM61.987 15.787L62.4571 15.6168L62.457 15.6166L61.987 15.787ZM61.9861 15.7846L61.5159 15.9547L61.5161 15.9551L61.9861 15.7846ZM61.9851 15.7818L62.4553 15.6118L62.4553 15.6117L61.9851 15.7818ZM62.1689 0.999512L62.5042 0.628672L62.0908 0.254733L61.7638 0.706313L62.1689 0.999512ZM64.0704 2.71919L64.4753 3.01243L64.7384 2.64918L64.4057 2.34835L64.0704 2.71919ZM64.2543 14.7568L64.7245 14.5867L64.7244 14.5865L64.2543 14.7568ZM64.2562 14.762L64.7263 14.5919L64.7263 14.5919L64.2562 14.762ZM75.1972 27.8282L74.7921 27.535L74.5292 27.8983L74.8618 28.199L75.1972 27.8282ZM77.0984 29.5478L76.763 29.9186L77.1765 30.2925L77.5034 29.841L77.0984 29.5478ZM75.0148 15.7862L75.4849 15.616L75.4845 15.6149L75.0148 15.7862ZM75.0142 15.7846L74.5439 15.9544L74.5445 15.956L75.0142 15.7846ZM75.0131 15.7818L75.4835 15.6121L75.4833 15.6117L75.0131 15.7818ZM75.1972 0.999512L75.5326 0.628696L75.1191 0.254701L74.7922 0.706313L75.1972 0.999512ZM77.0984 2.71919L77.5034 3.01242L77.7664 2.64919L77.4338 2.34838L77.0984 2.71919ZM77.2823 14.7568L76.8122 14.9271L76.8123 14.9272L77.2823 14.7568ZM77.2841 14.7616L77.7543 14.5915L77.7542 14.5912L77.2841 14.7616ZM41.5883 93.8199L42.0792 93.9151L42.1573 93.5123L41.7775 93.3571L41.5883 93.8199ZM1.61622 49.4211L1.14194 49.5794L1.14195 49.5794L1.61622 49.4211ZM1.00003 47.5748V47.0748H0.306056L0.52575 47.7331L1.00003 47.5748ZM128.429 47.5748L128.903 47.7331L129.123 47.0748H128.429V47.5748ZM127.812 49.4211L127.338 49.2628L127.338 49.2628L127.812 49.4211ZM87.8405 93.8199L87.6514 93.3571L87.2716 93.5122L87.3496 93.915L87.8405 93.8199ZM43.5222 91.686L43.342 92.1524L43.3422 92.1525L43.5222 91.686ZM4.54975 50.3098V49.8098H3.83733L4.07953 50.4798L4.54975 50.3098ZM44.7953 92.1771L45.2581 92.3664L45.4511 91.8942L44.9752 91.7106L44.7953 92.1771ZM44.7565 92.272L44.2937 92.0827L44.0118 92.772H44.7565V92.272ZM69.6823 92.272H70.1823V91.772H69.6823V92.272ZM69.6823 95.007V95.507H70.1823V95.007H69.6823ZM43.905 95.007V94.507H43.4297L43.4056 94.9817L43.905 95.007ZM85.1926 93.5447L85.6558 93.3563L85.6557 93.3562L85.1926 93.5447ZM84.636 92.1771L84.4558 91.7107L83.981 91.8942L84.1729 92.3656L84.636 92.1771ZM85.9068 91.686L85.7265 91.2196L85.7265 91.2196L85.9068 91.686ZM124.88 50.3098L125.351 50.4798L125.593 49.8098H124.88V50.3098ZM83.5109 83.9306L83.3307 83.4642L82.8956 83.6323L83.0331 84.078L83.5109 83.9306ZM84.3087 86.5164L83.8309 86.6639L83.9889 87.176L84.4889 86.9829L84.3087 86.5164ZM113.96 56.4413L114.24 56.0268L113.782 55.7183L113.52 56.2037L113.96 56.4413ZM116.055 57.8546L116.495 58.0922L116.71 57.6935L116.335 57.4401L116.055 57.8546ZM51.375 29.1769L49.4736 27.4574L48.8029 28.1991L50.7042 29.9186L51.375 29.1769ZM50.7542 14.9281C52.4113 19.5065 54.1527 24.3976 50.6347 29.2545L51.4446 29.8411C55.3117 24.5022 53.3262 19.096 51.6945 14.5878L50.7542 14.9281ZM50.7535 14.9263L50.7542 14.9281L51.6945 14.5878L51.6938 14.586L50.7535 14.9263ZM50.6346 2.42595C47.6739 6.51486 49.1792 10.5786 50.7536 14.9264L51.6938 14.5859C50.0839 10.1401 48.8396 6.61008 51.4446 3.01243L50.6346 2.42595ZM48.8029 1.37034L50.7042 3.09002L51.375 2.34836L49.4736 0.628684L48.8029 1.37034ZM49.4269 15.613C47.7695 11.0371 46.0283 6.14814 49.5433 1.29271L48.7332 0.706313C44.8693 6.04373 46.8546 11.4477 48.4866 15.9535L49.4269 15.613ZM49.4283 15.617L49.4268 15.6129L48.4866 15.9535L48.4881 15.9577L49.4283 15.617ZM49.5432 28.1215C52.5067 24.0295 51.0021 19.9655 49.4284 15.6172L48.4881 15.9575C50.0971 20.4035 51.3411 23.934 48.7333 27.5349L49.5432 28.1215ZM61.8335 28.1991L63.735 29.9186L64.4057 29.1769L62.5042 27.4574L61.8335 28.1991ZM61.5169 15.9572C63.1263 20.4025 64.371 23.9336 61.7638 27.535L62.5739 28.1214C65.5366 24.0289 64.0312 19.9644 62.4571 15.6168L61.5169 15.9572ZM61.5161 15.9551L61.5169 15.9574L62.457 15.6166L62.4562 15.6142L61.5161 15.9551ZM61.5149 15.9519L61.5159 15.9547L62.4563 15.6146L62.4553 15.6118L61.5149 15.9519ZM61.7638 0.706313C57.9008 6.0426 59.8844 11.4454 61.5149 15.9519L62.4553 15.6117C60.7994 11.0351 59.0596 6.14716 62.5739 1.29271L61.7638 0.706313ZM64.4057 2.34835L62.5042 0.628672L61.8335 1.37035L63.735 3.09003L64.4057 2.34835ZM64.7244 14.5865C63.1144 10.1417 61.8703 6.61009 64.4753 3.01243L63.6654 2.42595C60.7047 6.51485 62.2096 10.5801 63.7842 14.9271L64.7244 14.5865ZM64.7263 14.5919L64.7245 14.5867L63.7841 14.9269L63.786 14.932L64.7263 14.5919ZM64.4754 29.841C68.3401 24.5035 66.3567 19.0994 64.7263 14.5919L63.786 14.932C65.4417 19.5096 67.1813 24.3988 63.6654 29.2545L64.4754 29.841ZM74.8618 28.199L76.763 29.9186L77.4338 29.1769L75.5326 27.4574L74.8618 28.199ZM74.5446 15.9564C76.1544 20.4021 77.3992 23.9334 74.7921 27.535L75.6022 28.1214C78.5648 24.0286 77.0592 19.9639 75.4849 15.616L74.5446 15.9564ZM74.5445 15.956L74.545 15.9575L75.4845 15.6149L75.4839 15.6133L74.5445 15.956ZM74.5428 15.9515L74.5439 15.9544L75.4845 15.6149L75.4835 15.6121L74.5428 15.9515ZM74.7922 0.706313C70.9291 6.04257 72.9126 11.4454 74.543 15.9519L75.4833 15.6117C73.8276 11.0351 72.0879 6.14715 75.6022 1.29271L74.7922 0.706313ZM77.4338 2.34838L75.5326 0.628696L74.8618 1.37033L76.763 3.09001L77.4338 2.34838ZM77.7525 14.5866C76.1427 10.1417 74.8986 6.61008 77.5034 3.01242L76.6934 2.42597C73.733 6.51485 75.2379 10.5801 76.8122 14.9271L77.7525 14.5866ZM77.7542 14.5912L77.7524 14.5865L76.8123 14.9272L76.814 14.9319L77.7542 14.5912ZM77.5034 29.841C81.3684 24.5033 79.3848 19.0991 77.7543 14.5915L76.8139 14.9317C78.4697 19.5093 80.2096 24.3987 76.6934 29.2545L77.5034 29.841ZM47.5137 102.5H81.914V101.5H47.5137V102.5ZM40.9535 95.223C40.9535 99.1819 43.8446 102.5 47.5137 102.5V101.5C44.499 101.5 41.9535 98.7377 41.9535 95.223H40.9535ZM41.0975 93.7247C41.002 94.2173 40.9535 94.7178 40.9535 95.223H41.9535C41.9535 94.782 41.9958 94.3452 42.0792 93.9151L41.0975 93.7247ZM1.14195 49.5794C8.09778 70.4177 22.7245 86.6523 41.3992 94.2828L41.7775 93.3571C23.3982 85.8474 8.96323 69.8522 2.0905 49.2628L1.14195 49.5794ZM0.52575 47.7331L1.14194 49.5794L2.09051 49.2628L1.47432 47.4165L0.52575 47.7331ZM128.429 47.0748H1.00003V48.0748H128.429V47.0748ZM128.287 49.5794L128.903 47.7331L127.955 47.4165L127.338 49.2628L128.287 49.5794ZM88.0296 94.2828C106.707 86.6523 121.332 70.4184 128.287 49.5794L127.338 49.2628C120.467 69.8529 106.033 85.8473 87.6514 93.3571L88.0296 94.2828ZM88.4754 95.223C88.4754 94.72 88.427 94.2189 88.3314 93.7249L87.3496 93.915C87.4332 94.3467 87.4754 94.7842 87.4754 95.223H88.4754ZM81.914 102.5C85.5828 102.5 88.4754 99.182 88.4754 95.223H87.4754C87.4754 98.7375 84.9286 101.5 81.914 101.5V102.5ZM43.7024 91.2196C26.0326 84.3912 12.0152 69.491 5.01997 50.1399L4.07953 50.4798C11.1634 70.0761 25.3764 85.2097 43.342 92.1524L43.7024 91.2196ZM44.9752 91.7106L43.7021 91.2195L43.3422 92.1525L44.6153 92.6436L44.9752 91.7106ZM45.2193 92.4612L45.2581 92.3664L44.3325 91.9879L44.2937 92.0827L45.2193 92.4612ZM44.7565 92.772H69.6823V91.772H44.7565V92.772ZM69.1823 92.272V95.007H70.1823V92.272H69.1823ZM69.6823 94.507H43.905V95.507H69.6823V94.507ZM44.3995 95.223C44.3995 95.1594 44.4011 95.0959 44.4043 95.0324L43.4056 94.9817C43.4015 95.062 43.3995 95.1425 43.3995 95.223H44.3995ZM47.5137 98.7647C45.8475 98.7647 44.3995 97.2303 44.3995 95.223H43.3995C43.3995 97.6746 45.1931 99.7647 47.5137 99.7647V98.7647ZM81.914 98.7647H47.5137V99.7647H81.914V98.7647ZM85.0293 95.223C85.0293 97.2301 83.5804 98.7647 81.914 98.7647V99.7647C84.2345 99.7647 86.0293 97.6748 86.0293 95.223H85.0293ZM84.7295 93.7331C84.9297 94.2253 85.0293 94.7265 85.0293 95.223H86.0293C86.0293 94.5907 85.9021 93.962 85.6558 93.3563L84.7295 93.7331ZM84.1729 92.3656L84.7295 93.7332L85.6557 93.3562L85.0991 91.9886L84.1729 92.3656ZM85.7265 91.2196L84.4558 91.7107L84.8162 92.6435L86.087 92.1524L85.7265 91.2196ZM124.41 50.1399C117.416 69.491 103.398 84.3912 85.7265 91.2196L86.087 92.1524C104.054 85.2097 118.268 70.0761 125.351 50.4798L124.41 50.1399ZM4.54975 50.8098H124.88V49.8098H4.54975V50.8098ZM83.0331 84.078L83.8309 86.6639L84.7865 86.369L83.9887 83.7832L83.0331 84.078ZM113.52 56.2037C106.65 68.9224 95.9244 78.5992 83.3307 83.4642L83.691 84.397C96.5228 79.4401 107.425 69.5916 114.4 56.679L113.52 56.2037ZM116.335 57.4401L114.24 56.0268L113.681 56.8558L115.776 58.2691L116.335 57.4401ZM84.4889 86.9829C97.8608 81.8173 109.224 71.5524 116.495 58.0922L115.615 57.6169C108.449 70.8832 97.2623 80.9765 84.1285 86.05L84.4889 86.9829Z" fill="#079D49"/>
</svg>
