<svg width="120" height="101" viewBox="0 0 120 101" fill="none" xmlns="http://www.w3.org/2000/svg">
<path fill-rule="evenodd" clip-rule="evenodd" d="M70.7433 79.8626H72.5916C74.5552 68.0781 82.8518 58.1048 94.052 54.0891L95.0228 31.2667H90.9583V28.9884H97.0079L97.2836 28.9404L97.303 28.9884H97.3663V29.1454L103.732 44.9268C104.404 44.6812 105.118 44.5544 105.848 44.5544C109.278 44.5544 112.069 47.3639 112.069 50.8189C112.069 53.3235 110.595 55.5355 108.412 56.5296L112.356 66.3082L110.173 65.7351C108.459 65.2839 106.752 65.0563 105.096 65.0563C99.8455 65.0563 95.0566 67.0873 91.464 70.41L95.199 74.1712C97.8315 71.8092 101.299 70.3722 105.095 70.3722C113.305 70.3722 119.985 77.0995 119.985 85.3672C119.985 93.6368 113.305 100.364 105.095 100.364C96.8831 100.364 90.2035 93.6368 90.2035 85.3672C90.2035 81.7388 91.49 78.4071 93.6279 75.8105L89.8855 72.0419C86.7979 75.6109 84.9259 80.2727 84.9259 85.3665C84.9259 86.2982 85.0065 87.2691 85.1798 88.4257L85.3755 89.7336H46.5807C44.7199 95.8798 39.0373 100.364 32.3342 100.364C24.1227 100.364 17.443 93.6362 17.443 85.3666C17.443 85.1771 17.4465 84.9873 17.4536 84.7978H19.7174C19.7091 84.9873 19.705 85.1772 19.705 85.3666C19.705 92.3805 25.3708 98.0859 32.3342 98.0859C39.2978 98.0859 44.9624 92.3805 44.9624 85.3666C44.9624 85.1774 44.9582 84.9875 44.9498 84.7978H47.2137C47.2208 84.9876 47.2244 85.1774 47.2244 85.3666C47.2244 86.0753 47.1753 86.7726 47.0805 87.4554H82.7757C82.7005 86.7188 82.664 86.0363 82.664 85.3665C82.664 79.3485 85.0133 73.8723 88.8371 69.8193C88.887 69.7286 88.9502 69.6433 89.0267 69.5662C89.0964 69.496 89.1729 69.4369 89.2541 69.3888C93.3149 65.3059 98.9179 62.7776 105.096 62.7776C106.252 62.7776 107.427 62.8773 108.61 63.0724L106.19 57.0741C106.076 57.0804 105.962 57.0836 105.848 57.0836V56.2269L97.1433 34.6446L96.2454 55.7509L95.5021 55.9963C84.4291 59.6643 76.2572 69.5397 74.6845 81.1558L74.5509 82.1395H51.1006C50.9712 81.3623 50.7965 80.6024 50.5797 79.8626H57.0704L55.6861 68.4733H41.3915C39.0622 67.2132 36.441 66.4292 33.6573 66.2399V68.4733H41.3915C45.7762 70.8456 49.1265 74.9054 50.5797 79.8626H50.0554V82.1395H51.1006C51.1781 82.6046 51.2395 83.076 51.284 83.5529L51.4012 84.7978H47.2137C47.1958 84.3179 47.1551 83.8375 47.0917 83.3649L44.8498 83.6673C44.8998 84.0407 44.9332 84.4191 44.9498 84.7978H39.6628C39.6259 84.3124 39.5419 83.8324 39.4115 83.3649L37.2335 83.9819C37.3084 84.2487 37.361 84.5215 37.3914 84.7978H27.2764C27.3066 84.5251 27.3585 84.2553 27.4315 83.9908L25.2514 83.3801C25.124 83.8439 25.0413 84.3188 25.0048 84.7978H19.7174C19.7335 84.4279 19.7653 84.0592 19.812 83.6966L17.57 83.401C17.5102 83.8613 17.4712 84.3289 17.4536 84.7978H13.2736L13.3896 83.5529C14.0074 76.9387 17.851 71.4118 23.2819 68.4736H7.64551V66.9549H28.002V57.6353C29.2096 56.4676 30.8487 55.749 32.6516 55.749H35.336C33.4148 53.1945 32.3754 50.0941 32.3754 46.8332C32.3754 42.8779 33.905 39.1596 36.6829 36.3642L54.6079 18.7473L60.8538 25.1931H87.7497V35.8235H56.6653L46.2197 46.0878C46.0219 46.2867 45.9657 46.5574 45.9513 46.7289L67.552 53.6259L70.7433 79.8626ZM28.002 57.6353V39.2414H0.482666V66.9549H7.64551V66.1961H25.9344V62.5126C25.9344 60.598 26.7282 58.8669 28.002 57.6353ZM25.0048 84.7978H27.2764C27.2555 84.9863 27.2449 85.1762 27.2449 85.3666C27.2449 88.1933 29.5278 90.4925 32.3342 90.4925C35.1395 90.4925 37.4224 88.1933 37.4224 85.3666C37.4224 85.176 37.4121 84.9861 37.3914 84.7978H39.6628C39.6771 84.9867 39.6843 85.1765 39.6843 85.3666C39.6843 89.449 36.3876 92.7701 32.3342 92.7701C28.281 92.7701 24.9831 89.449 24.9831 85.3666C24.9831 85.1767 24.9903 84.9869 25.0048 84.7978ZM92.4653 85.3672C92.4653 82.3668 93.5025 79.6058 95.2348 77.4287L99.0051 81.2255C98.209 82.4083 97.7434 83.8341 97.7434 85.3672C97.7434 89.4496 101.041 92.7706 105.095 92.7706C109.148 92.7706 112.445 89.4496 112.445 85.3672C112.445 81.2867 109.148 77.9657 105.095 77.9657C103.379 77.9657 101.799 78.5606 100.547 79.5563L96.8007 75.7841C99.0212 73.833 101.923 72.6498 105.095 72.6498C112.058 72.6498 117.723 78.3546 117.723 85.3672C117.723 92.3811 112.058 98.0864 105.095 98.0864C98.1312 98.0864 92.4653 92.3811 92.4653 85.3672ZM100.005 85.3672C100.005 84.4647 100.238 83.6159 100.647 82.8787L103.353 85.6033C103.573 85.8251 103.863 85.9369 104.152 85.9369C104.441 85.9369 104.731 85.8251 104.952 85.6033C105.394 85.1584 105.394 84.4371 104.952 83.9923L102.161 81.1821C102.991 80.591 104.003 80.2433 105.095 80.2433C107.9 80.2433 110.183 82.5418 110.183 85.3672C110.183 88.1939 107.9 90.493 105.095 90.493C102.288 90.493 100.005 88.1939 100.005 85.3672ZM32.1543 66.1961L32.1846 66.1958H32.49L32.5203 66.1961H32.1543ZM32.49 66.1958L32.4028 66.1953L32.3373 66.1952L32.2748 66.1953L32.1846 66.1958H28.1962V62.5126C28.1962 60.0392 30.1953 58.0266 32.6516 58.0266H37.4012L37.8536 58.4816L55.1426 64.0008L55.4093 66.1958H32.49ZM32.2514 68.4736C24.0052 68.5146 17.1465 74.4565 15.8038 82.5202H48.8708C47.5271 74.4565 40.6682 68.5146 32.4232 68.4736H32.2514ZM85.4877 27.4713H60.0895L59.9932 27.5659L59.9015 27.4713H56.8373V25.1931H57.6933L54.5682 21.9692L38.2721 37.9841C35.9318 40.3411 34.6374 43.4867 34.6374 46.8332C34.6374 50.1816 35.9318 53.3273 38.282 55.6931L39.0618 56.4786L57.21 62.2711L59.2443 79.0002L68.2247 77.8919L65.4845 55.3551L44.0715 48.5185L43.8827 47.9859C43.7192 47.5233 43.685 47.1033 43.685 46.8332C43.685 46.4087 43.7767 45.3277 44.6304 44.4685L53.4264 35.8235H48.9207V33.5459H55.7438L55.899 33.3933L56.0468 33.5459H85.4877V27.4713ZM107.56 54.4171C108.905 53.7681 109.807 52.3833 109.807 50.8189C109.807 48.6214 108.031 46.8319 105.848 46.8319C105.413 46.8319 104.988 46.9025 104.584 47.0397L107.56 54.4171ZM63.1563 22.3537C57.1769 22.3537 52.3117 17.4541 52.3117 11.4322C52.3117 5.41036 57.1769 0.510742 63.1563 0.510742C69.1346 0.510742 73.9975 5.41036 73.9975 11.4322C73.9975 17.4541 69.1346 22.3537 63.1563 22.3537ZM63.1563 2.78835C58.4239 2.78835 54.5737 6.66606 54.5737 11.4322C54.5737 16.1984 58.4239 20.0755 63.1563 20.0755C67.8867 20.0755 71.7356 16.1984 71.7356 11.4322C71.7356 6.66606 67.8867 2.78835 63.1563 2.78835ZM21.217 32.0273H7.64551V29.749H21.217V32.0273ZM19.7082 24.0538H45.72V21.7756H19.7082V24.0538ZM2.74441 64.6774H25.7401V41.519H2.74441V64.6774Z" fill="#089D49"/>
</svg>
