<svg width="58" height="58" viewBox="0 0 58 58" fill="none" xmlns="http://www.w3.org/2000/svg">
<path fill-rule="evenodd" clip-rule="evenodd" d="M51.9584 51.9584H9.66671C6.9975 51.9584 4.83337 49.7943 4.83337 47.1251V23.9952C2.75142 23.4562 1.20837 21.5833 1.20837 19.3334V15.741C1.20837 15.7386 1.20837 15.7374 1.20837 15.735V15.7084C1.20837 15.5187 1.26033 15.3459 1.33767 15.1852C1.34371 15.1743 1.35217 15.1671 1.35821 15.1574C1.43796 15.004 1.55033 14.8771 1.68567 14.7707L9.93858 6.51904C10.1585 6.23629 10.4884 6.04175 10.875 6.04175H10.9004C10.9028 6.04175 10.9052 6.04175 10.9077 6.04175H18.1504C18.1528 6.04175 18.1553 6.04175 18.1577 6.04175H25.4004C25.4028 6.04175 25.4053 6.04175 25.4077 6.04175H32.6504C32.6528 6.04175 32.6553 6.04175 32.6577 6.04175H39.9004C39.9028 6.04175 39.9053 6.04175 39.9077 6.04175H51.9584C54.6276 6.04175 56.7917 8.20587 56.7917 10.8751V47.1251C56.7917 49.7943 54.6276 51.9584 51.9584 51.9584ZM18.125 49.5417V38.6667H13.2917V49.5417H18.125ZM3.62504 19.3334C3.62504 20.6674 4.70771 21.7501 6.04171 21.7501C7.37571 21.7501 8.45837 20.6674 8.45837 19.3334V16.9167H3.62504V19.3334ZM11.3354 8.45841L5.29375 14.5001H9.20633L15.248 8.45841H11.3354ZM10.875 19.3334C10.875 20.6674 11.9577 21.7501 13.2917 21.7501C14.6257 21.7501 15.7084 20.6674 15.7084 19.3334V16.9167H10.875V19.3334ZM18.5854 8.45841L12.5437 14.5001H16.4563L22.498 8.45841H18.5854ZM18.125 19.3334C18.125 20.6674 19.2077 21.7501 20.5417 21.7501C21.8757 21.7501 22.9584 20.6674 22.9584 19.3334V16.9167H18.125V19.3334ZM25.8354 8.45841L19.7938 14.5001H23.7063L29.748 8.45841H25.8354ZM25.375 19.3334C25.375 20.6674 26.4577 21.7501 27.7917 21.7501C29.1257 21.7501 30.2084 20.6674 30.2084 19.3334V16.9167H25.375V19.3334ZM33.0854 8.45841L27.0438 14.5001H30.9563L36.998 8.45841H33.0854ZM38.6667 10.1271L32.625 16.1688V19.3334C32.625 22.0026 30.4609 24.1667 27.7917 24.1667C26.3405 24.1667 25.0524 23.513 24.1667 22.5005C23.281 23.513 21.9929 24.1667 20.5417 24.1667C19.0905 24.1667 17.8024 23.513 16.9167 22.5005C16.031 23.513 14.7429 24.1667 13.2917 24.1667C11.8381 24.1667 10.5512 23.513 9.66429 22.498C9.03475 23.2122 8.20342 23.7487 7.25004 23.9952V47.1251C7.25004 48.4591 8.33271 49.5417 9.66671 49.5417H10.875V37.4584C10.875 36.7902 11.4152 36.2501 12.0834 36.2501H19.3334C20.0016 36.2501 20.5417 36.7902 20.5417 37.4584V49.5417H36.25C37.584 49.5417 38.6667 48.4591 38.6667 47.1251V10.1271ZM54.375 10.8751C54.375 9.54108 53.2924 8.45841 51.9584 8.45841H41.0834V47.1251C41.0834 48.0096 40.8284 48.8288 40.4128 49.5417H51.9584C53.2924 49.5417 54.375 48.4591 54.375 47.1251V10.8751ZM33.8334 38.6667H24.1667C23.4985 38.6667 22.9584 38.1266 22.9584 37.4584V29.0001C22.9584 28.3319 23.4985 27.7917 24.1667 27.7917H33.8334C34.5016 27.7917 35.0417 28.3319 35.0417 29.0001V37.4584C35.0417 38.1266 34.5016 38.6667 33.8334 38.6667ZM32.625 30.2084H25.375V36.2501H32.625V30.2084Z" fill="#089D49"/>
</svg>
