<svg width="51" height="51" viewBox="0 0 51 51" fill="none" xmlns="http://www.w3.org/2000/svg">
<path d="M28.3823 7.48536H50" stroke="#089D49" stroke-width="2" stroke-linecap="square"/>
<path d="M1 7.48536H8.20588" stroke="#089D49" stroke-width="2" stroke-linecap="square"/>
<path d="M45.6763 26.2206H49.9998" stroke="#089D49" stroke-width="2" stroke-linecap="square"/>
<path d="M1 26.2206H25.5" stroke="#089D49" stroke-width="2" stroke-linecap="square"/>
<path d="M28.3823 43.5148H50" stroke="#089D49" stroke-width="2" stroke-linecap="square"/>
<path d="M1 43.5148H8.20588" stroke="#089D49" stroke-width="2" stroke-linecap="square"/>
<path fill-rule="evenodd" clip-rule="evenodd" d="M14.6913 13.9706C18.2731 13.9706 21.1766 11.0671 21.1766 7.48536C21.1766 3.90363 18.2731 1.00006 14.6913 1.00006C11.1096 1.00006 8.20605 3.90363 8.20605 7.48536C8.20605 11.0671 11.1096 13.9706 14.6913 13.9706Z" stroke="#089D49" stroke-width="2" stroke-linecap="square"/>
<path fill-rule="evenodd" clip-rule="evenodd" d="M31.9853 32.7059C35.567 32.7059 38.4706 29.8024 38.4706 26.2206C38.4706 22.6389 35.567 19.7354 31.9853 19.7354C28.4036 19.7354 25.5 22.6389 25.5 26.2206C25.5 29.8024 28.4036 32.7059 31.9853 32.7059Z" stroke="#089D49" stroke-width="2" stroke-linecap="square"/>
<path fill-rule="evenodd" clip-rule="evenodd" d="M14.6913 50.0001C18.2731 50.0001 21.1766 47.0965 21.1766 43.5148C21.1766 39.933 18.2731 37.0295 14.6913 37.0295C11.1096 37.0295 8.20605 39.933 8.20605 43.5148C8.20605 47.0965 11.1096 50.0001 14.6913 50.0001Z" stroke="#089D49" stroke-width="2" stroke-linecap="square"/>
</svg>
