<svg width="57" height="57" viewBox="0 0 57 57" fill="none" xmlns="http://www.w3.org/2000/svg">
<path fill-rule="evenodd" clip-rule="evenodd" d="M40.375 55.8124H16.625C13.3451 55.8124 10.6875 53.1548 10.6875 49.8749V28.4999C10.6875 25.2212 13.3451 22.5624 16.625 22.5624H21.375C22.0317 22.5624 22.5625 23.0944 22.5625 23.7499C22.5625 24.4054 22.0317 24.9374 21.375 24.9374H16.625C14.6585 24.9374 13.0625 26.5334 13.0625 28.4999V49.8749C13.0625 51.8426 14.6585 53.4374 16.625 53.4374H40.375C42.3427 53.4374 43.9375 51.8426 43.9375 49.8749V28.4999C43.9375 26.5334 42.3427 24.9374 40.375 24.9374H35.625C34.9683 24.9374 34.4375 24.4054 34.4375 23.7499C34.4375 23.0944 34.9683 22.5624 35.625 22.5624H40.375C43.6549 22.5624 46.3125 25.2212 46.3125 28.4999V49.8749C46.3125 53.1548 43.6549 55.8124 40.375 55.8124ZM37.2091 12.7239L29.6875 5.20232V35.6249C29.6875 36.2816 29.1567 36.8124 28.5 36.8124C27.8433 36.8124 27.3125 36.2816 27.3125 35.6249V5.20232L19.7909 12.7239C19.3384 13.1764 18.6046 13.1764 18.1509 12.7239C17.6985 12.2715 17.6985 11.5364 18.1509 11.084L27.5381 1.69682C27.5761 1.641 27.6011 1.57688 27.6509 1.52582C27.8825 1.29544 28.1865 1.185 28.4881 1.18975C28.4929 1.18975 28.4953 1.18738 28.5 1.18738C28.5047 1.18738 28.5083 1.18975 28.5119 1.18975C28.8159 1.18619 29.1187 1.29544 29.3491 1.52582C29.3978 1.57569 29.4203 1.63744 29.4571 1.69207L38.8491 11.084C39.3015 11.5364 39.3015 12.2715 38.8491 12.7239C38.3954 13.1764 37.6616 13.1764 37.2091 12.7239Z" fill="#089D49"/>
</svg>
