<svg width="14" height="14" viewBox="0 0 14 14" fill="none" xmlns="http://www.w3.org/2000/svg">
<path d="M2.14159 1.65198C2.14121 1.65198 2.14079 1.65198 2.14041 1.65198C2.008 1.65198 1.88346 1.70359 1.78942 1.7974C1.69434 1.89224 1.64197 2.01852 1.64197 2.15296V9.66514C1.64197 9.94062 1.86696 10.1653 2.14357 10.166C3.30967 10.1688 5.26337 10.4118 6.61114 11.8222V3.96052C6.61114 3.86714 6.58729 3.77942 6.54227 3.70683C5.43608 1.92538 3.31033 1.65471 2.14159 1.65198Z" fill="#333333"/>
<path d="M12.3581 9.66519V2.15296C12.3581 2.01852 12.3057 1.89224 12.2107 1.7974C12.1166 1.70359 11.992 1.65198 11.8597 1.65198C11.8593 1.65198 11.8589 1.65198 11.8585 1.65198C10.6898 1.65476 8.56404 1.92543 7.4578 3.70687C7.41278 3.77947 7.38898 3.86719 7.38898 3.96057V11.8222C8.73675 10.4118 10.6904 10.1688 11.8565 10.166C12.1331 10.1653 12.3581 9.94062 12.3581 9.66519Z" fill="#333333"/>
<path d="M13.4991 3.38452H13.1359V9.66526C13.1359 10.3686 12.5628 10.9421 11.8584 10.9439C10.8693 10.9462 9.2384 11.1397 8.08337 12.2328C10.081 11.7437 12.1868 12.0617 13.387 12.3352C13.5368 12.3693 13.6917 12.334 13.8118 12.2383C13.9314 12.1429 14 12.0002 14 11.8471V3.88541C14.0001 3.60923 13.7753 3.38452 13.4991 3.38452Z" fill="#333333"/>
<path d="M0.864138 9.66526V3.38452H0.500891C0.224755 3.38452 0 3.60923 0 3.88541V11.8469C0 12.0001 0.0686332 12.1428 0.18827 12.2382C0.308237 12.3339 0.462944 12.3693 0.613032 12.335C1.81317 12.0615 3.91907 11.7436 5.9166 12.2327C4.76162 11.1396 3.13073 10.9462 2.14163 10.9438C1.43724 10.9421 0.864138 10.3686 0.864138 9.66526Z" fill="#333333"/>
</svg>
