<svg width="80" height="80" viewBox="0 0 250 250" fill="none" xmlns="http://www.w3.org/2000/svg">
<path d="M124.8 0.13201C192.441 -0.25399 249.172 55.126 249.24 124.454C249.307 193.637 193.432 249.865 124.599 249.79C56.1992 249.716 0.334182 193.79 0.0901823 125.547C-0.159818 56.028 56.3181 -0.23899 124.8 0.13201ZM139.244 80.558C134.184 80.646 129.814 82.491 125.61 84.839C112.837 92.0083 100.694 100.245 89.3102 109.462C88.1076 110.339 87.0785 111.431 86.2752 112.684C84.5582 115.639 84.6601 119.727 86.5891 121.998C88.8701 124.682 91.8102 124.44 94.7892 123.617C95.9084 123.284 96.9893 122.833 98.0141 122.273C107.596 117.256 117.214 112.298 126.704 107.119C129.515 105.586 131.569 105.742 133.711 108.106C139.125 114.084 144.683 119.93 150.095 125.906C160.35 137.234 170.534 148.626 180.784 159.959C181.567 160.825 182.126 162.587 183.969 161.042C190.834 155.288 197.203 149.108 201.869 141.358C202.262 140.805 202.484 140.148 202.505 139.47C202.527 138.792 202.348 138.122 201.991 137.545C194.101 122.525 186.258 107.481 178.461 92.412C177.645 90.834 176.911 90.499 175.33 91.512C170.667 94.499 166.088 93.894 161.63 90.901C157.983 88.3426 154.202 85.9799 150.303 83.823C146.909 81.9173 143.128 80.8013 139.243 80.558H139.244ZM225.628 130.47C225.604 129.298 225.242 128.158 224.585 127.187C221.567 121.356 218.552 115.523 215.54 109.687C210.336 99.6203 205.129 89.5537 199.92 79.487C198.036 75.862 196.377 75.361 192.756 77.232C190.121 78.594 187.496 79.9763 184.883 81.379C181.276 83.317 180.732 84.924 182.571 88.553C185.013 93.37 187.528 98.153 190.012 102.947C195.76 114.046 201.51 125.143 207.262 136.238C209.262 140.085 210.826 140.544 214.631 138.562C217.449 137.094 220.254 135.6 223.072 134.132C224.57 133.355 225.689 132.325 225.627 130.47H225.628ZM61.3062 83.42C61.4342 80.773 60.4392 79.62 58.5932 79.003C55.6772 78.035 52.7932 76.975 49.8792 75.993C46.3162 74.793 44.8791 75.443 43.4931 79.001C41.8781 83.149 40.3572 87.334 38.7932 91.501C33.9812 104.301 29.1411 117.085 24.3701 129.901C23.0101 133.554 23.7372 135.091 27.1432 136.33C29.5342 137.199 31.9432 138.015 34.3432 138.849C39.0082 140.468 40.2492 139.895 42.0042 135.236C48.2042 118.769 54.3958 102.3 60.5791 85.828C60.9491 84.841 61.1902 83.811 61.3062 83.42ZM47.3291 137.138C47.2946 137.982 47.4382 138.824 47.7506 139.609C48.063 140.394 48.5371 141.104 49.1422 141.694C53.2722 146.252 57.4792 150.741 61.5362 155.362C62.8742 156.885 63.6011 156.698 65.0111 155.376C66.5241 153.958 66.3041 153.22 65.0111 151.868C61.1291 147.805 57.4342 143.568 53.5912 139.468C53.0435 138.985 52.6717 138.334 52.5338 137.617C52.3959 136.899 52.4997 136.157 52.8291 135.505C58.5038 120.663 64.1115 105.796 69.6521 90.905C70.2811 89.222 70.7221 88.759 72.3391 90.085C77.4991 94.315 83.2541 94.785 89.3811 92.403C92.4071 91.1223 95.351 89.6558 98.1961 88.012C103.531 85.141 108.74 82.006 115.27 84.712C116.782 85.339 118.73 83.872 119.416 82.47C119.905 81.47 118.084 80.835 117.116 80.302C114.295 78.7634 111.027 78.2526 107.871 78.857C104.221 79.5572 100.716 80.8708 97.5052 82.742C93.5192 84.933 89.6731 87.442 85.1621 88.517C83.4128 89.0095 81.5649 89.0346 79.8028 88.5898C78.0407 88.145 76.4261 87.2458 75.1201 85.982C70.5681 81.695 67.8711 82.207 65.6781 88.009C59.7961 103.566 53.9232 119.126 48.0592 134.691C47.6942 135.666 47.4591 136.7 47.3291 137.138ZM140.534 195.538C137.725 194.307 137.069 197.002 136.769 198.423C136.363 200.347 138.598 200.189 139.903 200.377C145.613 201.198 150.53 197.412 152.219 190.841C152.576 189.452 152.535 188.599 154.525 189.219C161.749 191.471 167.965 187.774 169.503 180.287C169.931 178.203 170.529 178.109 172.371 178.548C178.81 180.085 184.549 176.758 186.298 170.674C186.762 169.062 187.609 166.518 186.298 166.011C184.636 165.369 182.891 167.411 181.937 168.979C178.077 175.329 173.624 175.799 168.722 170.22C163.261 164.004 157.792 157.796 152.314 151.596C151.235 150.372 150.114 148.955 148.373 150.475C146.683 151.948 146.897 153.559 148.393 155.162C150.853 157.799 153.257 160.488 155.665 163.174C158.284 166.095 161.065 168.899 163.441 172.004C164.789 173.746 165.409 175.942 165.173 178.132C164.937 180.322 163.863 182.335 162.175 183.75C159.112 186.129 155.775 185.395 152.248 181.485C146.989 175.658 141.78 169.785 136.51 163.969C135.518 162.869 134.561 160.979 132.693 162.706C131.151 164.131 131.493 165.734 132.774 167.212C134.582 169.295 136.402 171.367 138.207 173.453C140.913 176.58 143.753 179.605 146.272 182.878C148.49 185.761 148.411 189.019 146.618 192.15C146.07 193.267 145.194 194.191 144.107 194.796C143.019 195.401 141.772 195.659 140.534 195.535V195.538ZM118.257 165.8C116.038 165.557 114.37 166.6 112.831 168.007C108.214 172.229 103.586 176.439 98.9482 180.638C97.4 181.952 96.3185 183.731 95.8651 185.71C95.5172 187.273 95.6325 188.903 96.1969 190.402C96.7614 191.9 97.7505 193.201 99.0432 194.146C101.523 195.763 104.243 195.895 106.443 193.981C112.043 189.12 117.584 184.169 122.843 178.949C125.259 176.549 125.468 173.229 124.061 170.025C123.622 168.825 122.835 167.782 121.802 167.03C120.768 166.278 119.534 165.85 118.257 165.8ZM107.819 164.01C107.884 158.11 102.333 153.938 97.9012 156.976C92.4855 160.713 87.6014 165.168 83.3822 170.217C80.6972 173.417 81.6312 178.631 84.6402 181.18C87.5842 183.674 90.8631 183.263 94.5401 179.912C97.9911 176.77 101.424 173.612 104.869 170.459C105.796 169.66 106.539 168.671 107.048 167.559C107.557 166.446 107.82 165.237 107.819 164.014V164.01ZM134.641 190.364C134.641 186.691 132.929 183.796 130.107 182.764C127.049 181.649 124.52 182.658 122.381 184.955C120.863 186.585 119.349 188.219 117.771 189.788C116.154 191.177 114.973 193.005 114.371 195.05C113.593 198.372 114.846 202.166 117.451 203.827C119.81 205.327 122.494 205.502 124.629 203.79C128.036 201.086 131.052 197.922 133.591 194.39C134.379 193.204 134.748 191.788 134.641 190.368V190.364ZM82.3092 162.517C82.2362 157.048 77.1651 153.35 72.5761 155.517C70.4358 156.483 68.573 157.973 67.1591 159.848C66.1306 161.153 65.5173 162.736 65.3986 164.393C65.2799 166.05 65.6611 167.705 66.4931 169.143C67.0328 170.313 67.9138 171.293 69.0203 171.953C70.1268 172.613 71.4071 172.924 72.6931 172.843C77.1531 172.645 82.3692 167.018 82.3092 162.521V162.517Z" fill="#009444"/>
<path d="M139.243 80.558C143.13 80.8011 146.912 81.9174 150.307 83.824C154.206 85.9809 157.987 88.3436 161.634 90.902C166.088 93.895 170.667 94.502 175.334 91.513C176.915 90.501 177.649 90.836 178.465 92.413C186.265 107.48 194.108 122.524 201.995 137.546C202.352 138.123 202.531 138.793 202.509 139.471C202.488 140.149 202.266 140.806 201.873 141.359C197.203 149.109 190.834 155.289 183.973 161.043C182.13 162.588 181.573 160.826 180.788 159.96C170.538 148.627 160.354 137.235 150.099 125.907C144.687 119.929 139.129 114.083 133.715 108.107C131.573 105.743 129.515 105.587 126.708 107.12C117.214 112.299 107.6 117.257 98.0182 122.274C96.9933 122.834 95.9124 123.285 94.7932 123.618C91.8152 124.441 88.8752 124.683 86.5932 121.999C84.6642 119.728 84.5621 115.64 86.2791 112.685C87.0824 111.432 88.1116 110.34 89.3142 109.463C100.698 100.246 112.841 92.0093 125.614 84.84C129.813 82.491 134.183 80.646 139.243 80.558Z" fill="#FDFCFB"/>
<path d="M225.63 130.467C225.689 132.325 224.57 133.355 223.071 134.137C220.253 135.605 217.448 137.099 214.63 138.567C210.83 140.549 209.264 140.09 207.261 136.243C201.491 125.157 195.741 114.06 190.011 102.952C187.527 98.152 185.011 93.375 182.57 88.558C180.731 84.929 181.275 83.322 184.882 81.384C187.495 79.98 190.119 78.5977 192.755 77.237C196.376 75.366 198.035 75.867 199.919 79.492C205.143 89.548 210.35 99.6147 215.539 109.692C218.555 115.524 221.57 121.357 224.584 127.192C225.239 128.161 225.602 129.298 225.63 130.467Z" fill="#FDFCFB"/>
<path d="M61.3062 83.42C61.1902 83.811 60.9491 84.841 60.5801 85.82C54.3988 102.293 48.2071 118.763 42.0051 135.228C40.2501 139.887 39.0051 140.46 34.3441 138.841C31.9441 138.007 29.5311 137.191 27.1441 136.322C23.7381 135.083 23.0111 133.546 24.3711 129.893C29.1421 117.081 33.9821 104.293 38.7941 91.493C40.3611 87.327 41.8821 83.142 43.4941 78.993C44.8781 75.435 46.3171 74.783 49.8801 75.985C52.7921 76.967 55.6801 78.027 58.5941 78.995C60.4391 79.615 61.4342 80.773 61.3062 83.42Z" fill="#FDFCFB"/>
<path d="M47.3289 137.138C47.4589 136.696 47.6939 135.666 48.0629 134.687C53.9249 119.122 59.798 103.561 65.682 88.005C67.875 82.205 70.572 81.691 75.124 85.978C76.43 87.2418 78.0445 88.141 79.8066 88.5858C81.5687 89.0306 83.4166 89.0055 85.166 88.513C89.677 87.435 93.5229 84.929 97.5089 82.738C100.72 80.8668 104.225 79.5532 107.875 78.853C111.031 78.2486 114.299 78.7593 117.12 80.298C118.085 80.831 119.906 81.469 119.42 82.466C118.734 83.866 116.786 85.335 115.274 84.708C108.744 81.999 103.535 85.134 98.2 88.008C95.3549 89.6518 92.4109 91.1182 89.385 92.399C83.258 94.778 77.503 94.311 72.343 90.081C70.726 88.755 70.285 89.218 69.656 90.901C64.1013 105.789 58.4936 120.656 52.833 135.501C52.5036 136.153 52.3997 136.895 52.5376 137.613C52.6754 138.33 53.0473 138.981 53.5949 139.464C57.4379 143.564 61.133 147.805 65.015 151.864C66.307 153.216 66.527 153.954 65.015 155.372C63.605 156.694 62.8779 156.881 61.5399 155.358C57.4829 150.737 53.276 146.248 49.146 141.69C48.5407 141.101 48.0661 140.392 47.7531 139.607C47.44 138.823 47.2955 137.982 47.3289 137.138Z" fill="#F5F5F5"/>
<path d="M140.534 195.535C141.773 195.658 143.019 195.4 144.107 194.794C145.194 194.189 146.07 193.265 146.617 192.147C148.41 189.016 148.489 185.758 146.271 182.875C143.752 179.602 140.912 176.575 138.206 173.45C136.406 171.364 134.581 169.292 132.773 167.209C131.491 165.731 131.15 164.128 132.692 162.703C134.56 160.976 135.517 162.871 136.509 163.966C141.779 169.783 146.988 175.655 152.247 181.482C155.777 185.392 159.111 186.126 162.174 183.747C163.862 182.332 164.937 180.318 165.173 178.128C165.409 175.938 164.788 173.742 163.44 172C161.059 168.895 158.283 166.091 155.664 163.17C153.256 160.484 150.852 157.795 148.392 155.158C146.892 153.558 146.682 151.944 148.372 150.471C150.116 148.951 151.234 150.371 152.313 151.592C157.78 157.8 163.249 164.008 168.721 170.216C173.621 175.795 178.076 175.325 181.936 168.975C182.89 167.406 184.636 165.365 186.297 166.007C187.609 166.514 186.762 169.058 186.297 170.67C184.548 176.754 178.809 180.081 172.37 178.544C170.528 178.105 169.93 178.199 169.502 180.283C167.964 187.77 161.748 191.467 154.524 189.215C152.534 188.595 152.575 189.448 152.218 190.837C150.529 197.408 145.612 201.194 139.902 200.373C138.602 200.185 136.362 200.343 136.768 198.419C137.069 197 137.725 194.3 140.534 195.535Z" fill="#F5F5F5"/>
<path d="M118.257 165.8C119.536 165.848 120.772 166.275 121.807 167.027C122.842 167.78 123.63 168.823 124.07 170.025C125.477 173.225 125.27 176.553 122.852 178.949C117.588 184.169 112.052 189.12 106.452 193.981C104.247 195.895 101.528 195.763 99.052 194.146C97.7593 193.201 96.7703 191.9 96.2058 190.402C95.6414 188.903 95.5261 187.273 95.874 185.71C96.3273 183.731 97.4088 181.952 98.957 180.638C103.603 176.448 108.231 172.238 112.84 168.007C114.37 166.6 116.038 165.561 118.257 165.8Z" fill="#FDFCFB"/>
<path d="M107.819 164.014C107.821 165.238 107.559 166.447 107.051 167.56C106.542 168.673 105.8 169.663 104.873 170.463C101.428 173.612 97.9953 176.774 94.5443 179.916C90.8633 183.267 87.5843 183.678 84.6443 181.184C81.6353 178.635 80.7013 173.419 83.3863 170.221C87.604 165.172 92.4864 160.718 97.9003 156.98C102.333 153.942 107.884 158.11 107.819 164.014Z" fill="#FDFCFB"/>
<path d="M134.641 190.368C134.75 191.79 134.381 193.208 133.592 194.396C131.053 197.928 128.037 201.092 124.63 203.796C122.495 205.508 119.811 205.336 117.452 203.833C114.847 202.172 113.594 198.378 114.372 195.056C114.974 193.011 116.155 191.183 117.772 189.794C119.35 188.225 120.864 186.594 122.382 184.961C124.521 182.661 127.05 181.655 130.108 182.77C132.929 183.8 134.644 186.7 134.641 190.368Z" fill="#FDFCFB"/>
<path d="M82.3093 162.521C82.3693 167.021 77.1532 172.645 72.6942 172.841C71.4082 172.922 70.1279 172.611 69.0213 171.951C67.9148 171.291 67.0339 170.311 66.4943 169.141C65.6622 167.703 65.2809 166.048 65.3996 164.391C65.5184 162.734 66.1317 161.151 67.1602 159.846C68.574 157.971 70.4369 156.481 72.5773 155.515C77.1653 153.354 82.2363 157.052 82.3093 162.521Z" fill="#FDFCFB"/>
</svg>
