<svg width="80" height="80" viewBox="0 0 97 97" fill="none" xmlns="http://www.w3.org/2000/svg">
<path d="M48.5 97C75.2858 97 97 75.2858 97 48.5C97 21.7142 75.2858 0 48.5 0C21.7142 0 0 21.7142 0 48.5C0 75.2858 21.7142 97 48.5 97Z" fill="#009444"/>
<path d="M42.3143 49.1604C45.9862 49.8286 49.2377 46.2151 46.5791 44.5615C44.7738 43.4379 42.6897 42.8429 40.5633 42.8439C42.7908 42.339 45.1186 42.5156 47.2445 43.3506C47.3576 43.3959 47.4814 43.4077 47.6011 43.3846C47.7208 43.3614 47.8313 43.3043 47.9194 43.22C48.0074 43.1358 48.0694 43.0279 48.0978 42.9094C48.1262 42.7909 48.1199 42.6667 48.0796 42.5516C46.9355 39.0217 42.7903 37.705 38.9319 40.8368C36.9053 42.4848 36.1481 42.8356 36.123 42.8439C37.4398 44.1885 38.9737 48.6733 42.3143 49.1604Z" fill="white"/>
<path d="M49.3657 35.3694C49.4993 31.9481 51.203 29.3647 54.3766 27.931C52.9982 29.7143 52.028 31.7783 51.5343 33.9775C50.7826 37.3181 49.9976 39.4867 49.7109 50.0875C49.7037 50.3426 49.7482 50.5964 49.8415 50.8338C49.9348 51.0713 50.075 51.2875 50.2539 51.4694C50.4327 51.6514 50.6464 51.7954 50.8822 51.8928C51.118 51.9901 51.371 52.0389 51.6261 52.0362C52.005 52.0268 52.3728 51.9058 52.6832 51.6885C52.9937 51.4711 53.2332 51.1669 53.3716 50.8141C53.9038 49.5531 54.7271 48.436 55.7741 47.5542C56.3546 48.201 57.0907 48.6889 57.9126 48.9714C58.7344 49.254 59.6149 49.322 60.4704 49.1689C63.7887 48.6733 65.3393 44.1775 66.6672 42.8496C66.6477 42.8496 65.885 42.4904 63.8583 40.8424C57.2022 35.4362 52.9596 43.9603 55.5959 43.1168C57.5271 42.4895 59.5916 42.3933 61.5728 42.8384C59.8828 42.8424 58.2146 43.2204 56.6879 43.9452C55.1612 44.6701 53.8138 45.7238 52.7425 47.0309C52.9179 42.9498 53.1851 40.3942 53.4941 38.4929C55.2702 38.4316 57.642 36.9979 58.9421 34.4841C61.1886 30.4671 60.1475 26.3498 59.8106 23.7524C58.0596 25.4589 50.3985 23.4574 47.3613 28.6603C46.0195 30.9598 46.412 33.7575 47.8206 35.8037C47.9239 35.9441 48.0676 36.0498 48.2325 36.1065C48.3973 36.1632 48.5756 36.1683 48.7434 36.1212C48.9113 36.074 49.0608 35.9768 49.1719 35.8424C49.2831 35.7081 49.3507 35.5431 49.3657 35.3694Z" fill="white"/>
<path d="M73.6358 54.0486C71.5562 52.6567 69.2958 53.6505 68.2574 54.2491L55.2068 63.8004H47.5651L45.6554 61.8935H52.6735C54.7836 61.8935 57.1471 60.5183 57.1471 58.0713C57.1471 55.4739 54.7836 54.2491 52.6735 54.2491H50.0427C48.0941 54.2491 45.8057 54.4244 44.1967 53.5615C42.5943 52.7512 40.8227 52.3324 39.0271 52.3393C37.5576 52.3256 36.1001 52.6054 34.7401 53.1623C33.3801 53.7192 32.1449 54.542 31.1071 55.5825L23.9665 62.6145C23.5543 63.0199 23.2265 63.503 23.0019 64.0358C22.7774 64.5686 22.6606 65.1406 22.6582 65.7188C22.6559 66.297 22.7681 66.8699 22.9884 67.4045C23.2086 67.9391 23.5326 68.4248 23.9415 68.8336L28.5042 73.3963C28.9626 73.8544 29.517 74.205 30.1272 74.4231C30.7375 74.6411 31.3886 74.721 32.0335 74.6571C32.6784 74.5932 33.3011 74.3871 33.8567 74.0535C34.4123 73.72 34.887 73.2673 35.2467 72.7282L36.1041 71.442H54.1573C56.0832 71.4418 57.9422 70.7356 59.3825 69.4572L73.7722 56.6766C73.9636 56.5102 74.1146 56.3024 74.2137 56.069C74.3129 55.8356 74.3576 55.5826 74.3445 55.3293C74.3313 55.0761 74.2607 54.8291 74.1379 54.6072C74.0151 54.3853 73.8434 54.1943 73.6358 54.0486Z" fill="white"/>
</svg>
