<svg width="80" height="80" viewBox="0 0 239 239" fill="none" xmlns="http://www.w3.org/2000/svg">
<path d="M119.32 238.72C185.088 238.72 238.403 185.405 238.403 119.637C238.403 53.8693 185.088 0.554016 119.32 0.554016C53.5526 0.554016 0.237305 53.8693 0.237305 119.637C0.237305 185.405 53.5526 238.72 119.32 238.72Z" fill="#009444"/>
<path d="M120.639 140.374L119.339 132.585L119.188 132.595L117.908 140.352C117.45 140.152 116.994 140.101 116.726 140.61C116.49 141.057 116.926 141.297 117.153 141.581C117.278 141.699 117.421 141.797 117.575 141.872C117.697 142.377 117.622 142.909 117.365 143.36C117.028 143.51 116.734 143.742 116.511 144.035C116.288 144.329 116.142 144.673 116.087 145.038C116.032 145.402 116.069 145.775 116.196 146.121C116.323 146.467 116.535 146.775 116.813 147.018C116.691 149.218 116.201 151.368 115.882 153.541C115.357 157.119 114.765 160.687 114.239 164.264C113.865 166.81 111.938 167.771 109.721 167.613C108.221 167.505 106.899 165.605 106.887 163.846C106.866 160.646 106.878 157.452 106.879 154.255C106.888 136.922 106.904 119.586 106.926 102.249C106.958 101.85 106.89 101.449 106.727 101.083C106.565 100.717 106.312 100.399 105.994 100.156C103.527 98.156 101.042 96.156 98.7055 94.01C96.6435 92.11 94.4846 90.331 92.4056 88.459C91.9496 88.048 91.6835 88.004 91.1845 88.439C86.6091 92.419 82.0149 96.3774 77.4015 100.314C77.1399 100.516 76.9311 100.778 76.7931 101.078C76.6552 101.378 76.5922 101.707 76.6095 102.037C76.6489 122.57 76.6732 143.104 76.6825 163.637C76.7073 164.213 76.6043 164.787 76.3808 165.318C76.1573 165.849 75.8189 166.324 75.3899 166.708C74.961 167.093 74.4521 167.378 73.8999 167.542C73.3478 167.707 72.7661 167.747 72.1966 167.66C70.9736 167.575 69.3356 165.515 69.2386 164.272C69.1036 162.543 68.7876 160.827 68.5246 159.109C68.1986 156.986 67.8435 154.868 67.5075 152.746C66.4881 146.297 65.4702 139.848 64.4535 133.399C64.416 133.101 64.3084 132.816 64.1396 132.568C63.7816 134.812 63.4195 137.054 63.0675 139.299C61.9255 146.58 60.7862 153.862 59.6496 161.145C59.4756 162.259 59.3162 163.376 59.1715 164.495C58.9425 166.249 57.4415 167.46 55.3015 167.595C54.5141 167.555 53.761 167.26 53.1554 166.755C52.5499 166.25 52.1246 165.562 51.9435 164.795C51.8533 164.415 51.8077 164.026 51.8075 163.636C51.8015 152.979 51.8015 142.321 51.8075 131.664C51.8141 131.522 51.8281 131.381 51.8495 131.241L54.9385 131.193C55.4385 131.184 55.9045 131.079 55.9385 130.476C55.9795 129.698 55.9655 128.916 55.9485 128.136C55.9562 127.973 55.9029 127.812 55.7989 127.686C55.6948 127.559 55.5475 127.476 55.3855 127.452C54.2145 127.243 53.0686 126.728 51.8426 127.152L51.8586 124.995C52.0171 124.494 52.03 123.957 51.8955 123.449C51.8815 116.627 51.7835 109.804 51.9075 102.985C51.955 102.218 51.7761 101.454 51.393 100.789C51.0098 100.123 50.4393 99.5843 49.7525 99.24C48.9802 98.6563 48.2514 98.0173 47.5716 97.328C43.8856 94.208 40.3716 90.888 36.5766 87.892C35.7234 87.203 34.9079 86.4686 34.1336 85.692C33.6518 85.1177 33.3802 84.3962 33.364 83.6467C33.3479 82.8972 33.5879 82.1646 34.0445 81.57C34.5377 80.9523 35.2435 80.5406 36.0241 80.4154C36.8046 80.2902 37.6038 80.4605 38.2655 80.893C41.2125 82.799 44.1305 84.749 47.0525 86.693C49.9745 88.637 52.8855 90.593 55.8015 92.55C56.3089 92.8801 56.9056 93.0459 57.5105 93.025C62.0239 93.013 66.5365 93.013 71.0485 93.025C71.6523 93.0351 72.2441 92.8565 72.7415 92.514C76.3065 90.132 79.9265 87.83 83.4475 85.385C85.5315 83.938 87.8115 82.78 89.6995 81.031C90.3091 80.5568 91.0613 80.3027 91.8337 80.3102C92.606 80.3176 93.3531 80.5861 93.9535 81.072C96.1575 82.8021 98.4615 84.4009 100.854 85.86C104.099 88.096 107.421 90.218 110.694 92.415C111.274 92.8239 111.967 93.0395 112.677 93.031C117.117 93.009 121.559 93.009 126.001 93.031C126.675 93.0421 127.335 92.8417 127.89 92.458C132.938 89.092 137.992 85.7367 143.054 82.392C143.443 82.1452 143.809 81.8641 144.147 81.552C144.486 81.1778 144.899 80.8781 145.36 80.6721C145.821 80.4661 146.319 80.3583 146.824 80.3555C147.329 80.3527 147.828 80.4549 148.291 80.6558C148.754 80.8566 149.171 81.1516 149.514 81.522C150.69 82.4909 151.943 83.3631 153.261 84.13C156.695 86.448 160.161 88.718 163.616 91.006C164.5 91.592 165.385 92.175 166.273 92.755C166.683 92.9755 167.148 93.0688 167.611 93.023C172.157 93.023 176.704 93.0297 181.252 93.043C181.751 93.0541 182.24 92.9097 182.652 92.63C187.352 89.501 192.082 86.417 196.752 83.243C197.918 82.45 199.13 81.743 200.299 80.955C200.977 80.4804 201.813 80.2884 202.63 80.4201C203.446 80.5517 204.179 80.9965 204.673 81.66C205.161 82.3474 205.365 83.1958 205.245 84.0298C205.124 84.8637 204.687 85.6193 204.025 86.14C198.501 90.8734 192.978 95.6087 187.458 100.346C187.198 100.551 186.993 100.816 186.858 101.118C186.723 101.419 186.663 101.749 186.684 102.079C186.726 122.617 186.749 143.155 186.755 163.692C186.788 164.344 186.651 164.994 186.358 165.578C186.064 166.162 185.625 166.659 185.082 167.022C184.538 167.385 183.91 167.601 183.259 167.648C182.607 167.695 181.954 167.573 181.365 167.292C180.814 167.014 180.344 166.598 180.003 166.085C179.661 165.571 179.459 164.977 179.416 164.362C178.909 161.1 178.431 157.833 177.887 154.577C177.381 151.555 176.76 148.544 176.327 145.52C175.727 141.345 175.027 137.183 174.499 132.998C174.436 132.775 174.358 132.557 174.265 132.345C173.773 135.451 173.331 138.264 172.881 141.077C172.019 146.464 171.139 151.849 170.294 157.239C169.916 159.651 169.609 162.074 169.259 164.491C169.161 165.009 168.96 165.503 168.669 165.943C168.378 166.382 168.002 166.76 167.563 167.052C167.124 167.344 166.631 167.546 166.113 167.646C165.595 167.745 165.062 167.74 164.547 167.63C163.785 167.313 163.133 166.781 162.67 166.099C162.207 165.417 161.953 164.615 161.939 163.791C161.929 158.283 161.929 152.775 161.939 147.268C161.943 132.167 161.951 117.067 161.965 101.968C161.985 101.657 161.928 101.346 161.8 101.061C161.672 100.777 161.477 100.529 161.231 100.337C156.668 96.439 152.124 92.519 147.599 88.577C147.024 88.077 146.699 88.054 146.116 88.562C141.591 92.5047 137.044 96.422 132.474 100.314C132.199 100.527 131.981 100.803 131.838 101.12C131.696 101.437 131.633 101.784 131.657 102.13C131.699 111.581 131.72 121.033 131.72 130.484C131.72 130.801 131.67 131.118 131.643 131.435C130.614 132.147 130.609 132.875 131.626 133.594L131.697 134.219C131.367 134.092 131.036 133.964 130.705 133.839C130.353 133.665 129.962 133.584 129.57 133.605C129.178 133.626 128.798 133.748 128.466 133.96C128.135 134.171 127.864 134.464 127.679 134.811C127.495 135.158 127.403 135.546 127.413 135.939C127.384 136.739 127.1 136.86 126.387 136.787C125.854 136.702 125.306 136.796 124.831 137.054C124.356 137.312 123.98 137.72 123.761 138.214C123.507 138.71 123.423 139.276 123.523 139.824C123.622 140.373 123.899 140.873 124.312 141.248C124.843 141.819 125.32 142.44 125.851 143.011C126.151 143.332 126.331 144.027 126.996 143.517C127.579 143.069 127.259 142.671 126.906 142.27C126.628 141.955 126.577 141.635 127.006 141.392C127.438 141.142 127.802 140.788 128.063 140.362C128.325 139.936 128.477 139.452 128.506 138.953C128.559 138.507 128.773 138.337 129.224 138.418C129.665 138.476 130.114 138.437 130.539 138.303C130.964 138.169 131.354 137.943 131.682 137.641C131.696 144.558 131.709 151.476 131.723 158.393C131.723 160.202 131.741 162.012 131.716 163.821C131.678 166.521 129.746 167.811 127.371 167.671C126.091 167.596 124.63 165.951 124.39 164.446C123.982 161.89 123.653 159.321 123.178 156.778C122.461 152.933 122.189 149.016 121.261 145.207C121.245 145.03 121.254 144.852 121.289 144.678C121.679 144.678 122.071 144.698 122.46 144.673C122.979 144.661 123.482 144.489 123.899 144.18C124.316 143.87 124.626 143.439 124.788 142.946C124.837 142.812 124.844 142.666 124.806 142.528C124.767 142.391 124.686 142.269 124.575 142.18C124.227 141.918 124.089 142.236 123.913 142.455C123.722 142.693 123.556 143.093 123.189 142.937C122.838 142.788 122.989 142.373 122.989 142.069C122.991 141.785 123.012 141.502 123.051 141.221C123.096 140.775 123.374 140.242 122.928 139.921C122.412 139.554 121.841 139.794 121.328 140.069C121.089 140.167 120.862 140.267 120.639 140.374Z" fill="white"/>
<path d="M128.061 80.3481C128.07 81.5062 127.848 82.6544 127.41 83.7262C126.971 84.7979 126.323 85.7718 125.505 86.5912C124.686 87.4106 123.713 88.0592 122.642 88.4994C121.571 88.9395 120.423 89.1624 119.265 89.1551C118.107 89.1478 116.961 88.9105 115.896 88.4569C114.83 88.0033 113.865 87.3425 113.057 86.5129C112.249 85.6832 111.614 84.7013 111.189 83.6241C110.763 82.5469 110.556 81.396 110.579 80.2381C110.587 79.0902 110.82 77.9549 111.266 76.8972C111.712 75.8395 112.362 74.8799 113.179 74.0733C113.995 73.2668 114.963 72.629 116.026 72.1964C117.089 71.7638 118.228 71.5448 119.375 71.5521C120.523 71.5593 121.658 71.7925 122.716 72.2385C123.774 72.6844 124.734 73.3343 125.54 74.1511C126.347 74.9679 126.984 75.9356 127.417 76.9988C127.85 78.0621 128.069 79.2002 128.061 80.3481Z" fill="white"/>
<path d="M55.5466 80.2231C55.588 78.4941 56.142 76.8164 57.1382 75.4027C58.1345 73.989 59.5283 72.903 61.1426 72.2826C62.757 71.6621 64.5192 71.535 66.2059 71.9175C67.8925 72.2999 69.4276 73.1747 70.6164 74.4308C71.8052 75.687 72.5942 77.2679 72.8832 78.973C73.1723 80.6782 72.9484 82.4308 72.2401 84.0085C71.5317 85.5863 70.3706 86.9181 68.9042 87.835C67.4379 88.752 65.7322 89.2128 64.0036 89.1591C61.709 89.061 59.5426 88.0732 57.9639 86.4051C56.3852 84.7369 55.5182 82.5196 55.5466 80.2231Z" fill="white"/>
<path d="M165.627 79.894C165.507 77.329 166.84 75.434 168.563 73.781C169.389 72.9999 170.369 72.4006 171.441 72.0217C172.513 71.6428 173.652 71.4927 174.786 71.581C175.941 71.6296 177.076 71.9091 178.122 72.4028C179.168 72.8966 180.105 73.5947 180.877 74.4561C181.649 75.3174 182.241 76.3245 182.618 77.4182C182.995 78.5118 183.149 79.6698 183.072 80.824C183.019 81.9751 182.739 83.1044 182.247 84.1467C181.756 85.1891 181.064 86.124 180.209 86.8975C179.355 87.671 178.357 88.2679 177.271 88.6537C176.185 89.0396 175.034 89.2068 173.883 89.1457C172.732 89.0846 171.605 88.7965 170.566 88.2978C169.527 87.7992 168.597 87.1 167.83 86.2404C167.062 85.3808 166.473 84.3778 166.095 83.2893C165.716 82.2008 165.557 81.0482 165.627 79.898V79.894Z" fill="white"/>
<path d="M131.669 137.619C131.342 137.921 130.952 138.147 130.527 138.281C130.102 138.415 129.653 138.454 129.212 138.396C128.761 138.315 128.546 138.485 128.493 138.931C128.465 139.43 128.313 139.914 128.051 140.34C127.79 140.766 127.426 141.12 126.993 141.37C126.566 141.613 126.617 141.933 126.893 142.248C127.246 142.648 127.566 143.048 126.983 143.495C126.318 144.005 126.136 143.31 125.838 142.989C125.307 142.418 124.83 141.797 124.299 141.226C123.887 140.851 123.61 140.351 123.511 139.802C123.411 139.254 123.495 138.688 123.748 138.192C123.968 137.698 124.344 137.29 124.819 137.032C125.294 136.774 125.842 136.68 126.375 136.765C127.088 136.838 127.375 136.718 127.4 135.917C127.391 135.524 127.483 135.136 127.667 134.789C127.852 134.442 128.123 134.149 128.454 133.938C128.786 133.726 129.166 133.604 129.558 133.583C129.95 133.562 130.341 133.643 130.693 133.817C131.024 133.942 131.354 134.07 131.684 134.197C131.68 135.338 131.675 136.479 131.669 137.619ZM124.662 139.187C124.649 139.357 124.671 139.529 124.727 139.69C124.783 139.852 124.872 140 124.989 140.125C125.106 140.249 125.247 140.349 125.405 140.416C125.562 140.483 125.731 140.516 125.902 140.514C126.276 140.509 126.634 140.36 126.899 140.097C127.165 139.834 127.319 139.479 127.328 139.105C127.334 138.935 127.303 138.766 127.238 138.609C127.173 138.453 127.074 138.312 126.95 138.196C126.825 138.081 126.677 137.994 126.516 137.941C126.354 137.888 126.183 137.87 126.014 137.889C125.839 137.878 125.662 137.903 125.497 137.963C125.331 138.024 125.18 138.118 125.053 138.24C124.925 138.362 124.825 138.51 124.758 138.673C124.691 138.836 124.658 139.011 124.662 139.187ZM131.003 136.067C131.01 135.892 130.982 135.718 130.92 135.554C130.859 135.39 130.765 135.241 130.644 135.114C130.524 134.987 130.379 134.885 130.219 134.815C130.058 134.745 129.885 134.708 129.71 134.706C129.354 134.727 129.02 134.884 128.777 135.144C128.534 135.405 128.4 135.749 128.404 136.106C128.416 136.276 128.461 136.441 128.537 136.593C128.613 136.745 128.718 136.881 128.846 136.993C128.974 137.104 129.123 137.189 129.285 137.243C129.446 137.297 129.616 137.318 129.785 137.306C129.948 137.31 130.11 137.28 130.261 137.218C130.411 137.157 130.548 137.066 130.662 136.95C130.776 136.834 130.865 136.695 130.924 136.544C130.983 136.392 131.01 136.23 131.003 136.067Z" fill="white"/>
<path d="M51.8392 127.145C53.0652 126.726 54.2112 127.245 55.3822 127.445C55.5441 127.469 55.6914 127.552 55.7955 127.679C55.8995 127.805 55.9528 127.965 55.9451 128.129C55.9621 128.909 55.9763 129.691 55.9353 130.469C55.9043 131.069 55.4353 131.177 54.9353 131.186L51.8461 131.234C51.7451 129.873 51.7428 128.506 51.8392 127.145Z" fill="white"/>
<path d="M120.639 140.374C120.862 140.267 121.089 140.167 121.307 140.051C121.825 139.776 122.396 139.536 122.907 139.903C123.353 140.22 123.075 140.753 123.03 141.203C122.991 141.484 122.97 141.767 122.968 142.051C122.974 142.351 122.821 142.77 123.168 142.919C123.535 143.075 123.702 142.675 123.893 142.437C124.069 142.218 124.206 141.9 124.554 142.162C124.665 142.251 124.746 142.373 124.785 142.51C124.823 142.648 124.817 142.794 124.767 142.928C124.605 143.421 124.295 143.852 123.878 144.162C123.461 144.471 122.958 144.643 122.44 144.655C122.051 144.68 121.659 144.66 121.269 144.66L121.183 143.136C121.462 143.097 121.883 143.408 121.978 142.911C122.13 142.399 122.118 141.852 121.943 141.347C121.855 141.156 121.634 141.247 121.494 141.377C121.314 141.545 121.143 141.723 120.968 141.897L120.639 140.374Z" fill="white"/>
<path d="M116.816 147.018C116.539 146.775 116.327 146.467 116.2 146.121C116.073 145.775 116.035 145.402 116.09 145.038C116.145 144.673 116.291 144.329 116.515 144.035C116.738 143.742 117.032 143.51 117.368 143.36C117.272 144.591 117.087 145.813 116.816 147.018Z" fill="white"/>
<path d="M120.976 141.893C121.151 141.719 121.322 141.541 121.502 141.373C121.642 141.243 121.863 141.152 121.951 141.343C122.127 141.848 122.139 142.395 121.986 142.907C121.891 143.407 121.47 143.093 121.191 143.132C121.014 142.745 120.94 142.318 120.976 141.893Z" fill="white"/>
<path d="M117.579 141.872C117.425 141.797 117.282 141.699 117.156 141.581C116.932 141.297 116.493 141.057 116.729 140.61C116.998 140.101 117.453 140.149 117.911 140.352C117.893 140.875 117.781 141.39 117.579 141.872Z" fill="white"/>
<path d="M131.617 133.576C130.6 132.857 130.606 132.129 131.635 131.417L131.617 133.576Z" fill="white"/>
<path d="M51.8924 123.442C52.0268 123.95 52.014 124.487 51.8554 124.988C51.7496 124.888 51.6661 124.766 51.6102 124.632C51.5542 124.497 51.5271 124.352 51.5306 124.207C51.5341 124.061 51.568 123.918 51.6303 123.786C51.6926 123.654 51.7819 123.537 51.8924 123.442Z" fill="white"/>
<path d="M124.663 139.187C124.658 139.011 124.69 138.835 124.757 138.672C124.824 138.509 124.925 138.361 125.052 138.239C125.179 138.117 125.33 138.022 125.496 137.962C125.662 137.901 125.838 137.876 126.015 137.887C126.183 137.868 126.354 137.886 126.516 137.939C126.677 137.992 126.825 138.079 126.95 138.194C127.074 138.31 127.173 138.451 127.238 138.607C127.303 138.764 127.334 138.933 127.329 139.103C127.319 139.477 127.166 139.832 126.9 140.095C126.634 140.358 126.276 140.507 125.903 140.512C125.732 140.514 125.562 140.481 125.405 140.414C125.248 140.347 125.107 140.248 124.99 140.123C124.873 139.999 124.784 139.851 124.728 139.69C124.671 139.528 124.649 139.357 124.663 139.187Z" fill="white"/>
<path d="M131.003 136.067C131.01 136.23 130.984 136.393 130.926 136.545C130.867 136.698 130.778 136.836 130.664 136.953C130.55 137.07 130.413 137.162 130.262 137.223C130.111 137.285 129.949 137.315 129.785 137.311C129.616 137.323 129.446 137.302 129.284 137.248C129.123 137.194 128.974 137.109 128.846 136.998C128.718 136.886 128.613 136.75 128.537 136.598C128.461 136.446 128.416 136.281 128.404 136.111C128.4 135.755 128.533 135.41 128.777 135.149C129.02 134.889 129.354 134.732 129.71 134.711C129.885 134.713 130.057 134.75 130.217 134.82C130.377 134.89 130.522 134.991 130.642 135.117C130.763 135.243 130.857 135.392 130.919 135.556C130.981 135.719 131.01 135.893 131.003 136.067Z" fill="white"/>
</svg>
