<svg width="80" height="80" viewBox="0 0 224 224" fill="none" xmlns="http://www.w3.org/2000/svg">
<path d="M112 223.042C173.582 223.042 223.504 173.12 223.504 111.538C223.504 49.956 173.582 0.0339966 112 0.0339966C50.4181 0.0339966 0.496094 49.956 0.496094 111.538C0.496094 173.12 50.4181 223.042 112 223.042Z" fill="#009444"/>
<path d="M56.4531 106.768V66.368C56.8871 66.204 57.3331 66.068 57.7531 65.873C75.3751 57.693 92.9928 49.502 110.606 41.3C111.035 41.0698 111.514 40.9493 112.001 40.9493C112.487 40.9493 112.966 41.0698 113.395 41.3C126.238 47.306 139.094 53.2847 151.961 59.236C157.145 61.636 162.351 63.991 167.547 66.366V106.448C167.317 109.217 167.19 111.999 166.839 114.748C164.929 131.086 158.272 146.505 147.691 159.1C138.458 170.114 127.138 178.084 113.151 181.951C112.409 182.176 111.617 182.174 110.877 181.943C106.248 180.126 101.377 178.703 97.1041 176.243C74.7561 163.355 62.3691 143.503 57.7391 118.489C57.0261 114.636 56.8681 110.678 56.4531 106.768ZM66.6531 92.404C66.6531 96.61 66.6221 100.817 66.6531 105.023C66.6645 118.876 70.581 132.445 77.9531 144.174C85.8531 156.804 96.4851 166.24 110.711 171.249C111.53 171.541 112.424 171.546 113.246 171.265C116.721 169.799 120.362 168.545 123.524 166.55C144.262 153.466 155.115 134.221 156.976 110.106C157.896 98.185 157.247 86.145 157.356 74.159C157.384 73.7741 157.278 73.3913 157.055 73.0761C156.833 72.7609 156.507 72.5329 156.135 72.431C141.802 65.783 127.466 59.137 113.128 52.493C112.391 52.1999 111.569 52.2021 110.833 52.499C96.5161 59.06 82.2331 65.692 67.9221 72.268C67.5057 72.3967 67.1476 72.6672 66.9101 73.0327C66.6725 73.3981 66.5706 73.8352 66.6221 74.268C66.6811 80.311 66.6551 86.357 66.6561 92.4L66.6531 92.404Z" fill="white"/>
<path d="M103.4 138.034L82.3901 117.028L89.3721 110.051L103.433 124.151C114.249 113.335 124.935 102.648 135.49 92.091L142.336 99.082C129.517 111.9 116.454 124.969 103.4 138.034Z" fill="white"/>
</svg>
