<svg width="80" height="80" viewBox="0 0 242 242" fill="none" xmlns="http://www.w3.org/2000/svg">
<path d="M121.091 241.525C187.769 241.525 241.823 187.471 241.823 120.793C241.823 54.1146 187.769 0.0610046 121.091 0.0610046C54.4124 0.0610046 0.358887 54.1146 0.358887 120.793C0.358887 187.471 54.4124 241.525 121.091 241.525Z" fill="#009444"/>
<path d="M119.578 203.948C108.007 203.575 100.333 199.329 94.7341 191.248C93.5521 189.543 93.0991 188.348 95.6041 187.08C100.724 184.493 103.596 180.165 103.526 174.29C103.501 172.185 104.171 171.543 106.262 171.158C114.609 169.62 119.505 164.358 120.125 156.233C120.274 154.275 120.696 153.741 122.607 153.618C129.194 153.193 134.152 150.106 136.147 143.646C138.195 137.016 135.512 131.813 130.59 127.203C112.485 110.244 94.4664 93.193 76.5331 76.049C71.3261 71.102 70.7331 65.042 74.8671 60.649C78.8131 56.462 84.4251 56.767 89.7211 61.702C103.357 74.408 116.911 87.202 130.521 99.936C132.836 102.334 135.424 104.452 138.233 106.246C145.406 110.346 151.315 109.253 155.996 102.44C159.101 97.921 161.685 93.048 164.603 88.397C168.903 81.535 176.034 79.515 182.039 83.356C187.867 87.084 189.065 94.124 184.97 100.931C178.702 111.348 172.486 121.798 166.04 132.104C165.302 133.084 164.877 134.263 164.82 135.489C164.763 136.714 165.077 137.928 165.72 138.972C167.812 142.949 169.72 147.029 171.568 151.128C177.634 164.582 172.65 179.835 159.568 186.659C149.54 191.89 139.261 196.659 128.986 201.392C125.537 202.987 121.827 204.193 119.578 203.948Z" fill="white"/>
<path d="M84.0651 112.11C84.0341 107.778 85.8961 104.793 89.6121 103.193C91.4308 102.314 93.4781 102.023 95.4696 102.361C97.4611 102.699 99.2977 103.65 100.724 105.08C108.283 112.094 115.766 119.191 123.263 126.272C124.957 127.872 126.575 129.552 128.239 131.184C133.171 136.021 133.823 141.973 129.869 146.149C125.915 150.325 119.624 150.212 114.698 145.589C105.721 137.163 96.8781 128.595 87.9411 120.126C85.5441 117.854 83.7761 115.365 84.0651 112.11Z" fill="white"/>
<path d="M115.645 157.548C115.323 160.367 114.891 163.843 111.159 165.577C107.253 167.392 103.172 167.596 99.9394 164.642C89.6474 155.242 79.4584 145.718 69.5194 135.948C65.8074 132.299 66.2784 126.419 69.7064 122.848C73.1064 119.298 79.0284 118.431 82.8324 121.867C93.2964 131.321 103.432 141.134 113.632 150.878C115.256 152.423 115.67 154.627 115.645 157.548Z" fill="white"/>
<path d="M99.0881 174.284C99.6321 178.984 96.8241 181.691 93.7941 183.284C89.8941 185.336 85.6221 184.564 82.2281 181.397C75.5441 175.162 68.9281 168.851 62.2981 162.559C60.561 161.012 58.9044 159.376 57.3351 157.659C55.6878 155.862 54.7809 153.508 54.7961 151.07C54.8113 148.632 55.7476 146.29 57.4171 144.513C60.7171 140.886 66.6631 140.087 70.4901 143.513C79.5181 151.603 88.2631 160.013 97.0311 168.387C97.8762 169.091 98.5139 170.012 98.8762 171.051C99.2386 172.089 99.3118 173.207 99.0881 174.284Z" fill="white"/>
<path d="M144.984 62.591C142.13 61.944 140.815 60.102 141.984 57.164C143.765 52.683 145.784 48.298 147.766 43.898C147.929 43.419 148.191 42.9795 148.535 42.6077C148.878 42.2359 149.296 41.9401 149.76 41.7392C150.225 41.5383 150.726 41.4369 151.232 41.4413C151.738 41.4457 152.238 41.556 152.699 41.765C153.148 41.8972 153.564 42.1207 153.922 42.4215C154.281 42.7223 154.573 43.0939 154.78 43.513C154.988 43.9321 155.107 44.3897 155.129 44.8569C155.152 45.3241 155.078 45.7909 154.911 46.228C153.021 51.197 150.8 56.044 148.587 60.884C147.989 62.192 146.6 62.556 144.984 62.591Z" fill="white"/>
<path d="M135.551 52.975C135.551 54.26 135.628 55.421 135.535 56.568C135.353 58.819 133.781 59.733 131.809 59.727C130.883 59.7716 129.976 59.4493 129.285 58.8299C128.594 58.2106 128.176 57.344 128.119 56.418C127.493 51.674 126.931 46.9217 126.433 42.161C126.174 39.674 127.239 37.918 129.86 37.639C132.46 37.362 133.914 38.796 134.234 41.294C134.736 45.219 135.127 49.159 135.551 52.975Z" fill="white"/>
<path d="M171.35 59.454C171.263 62.416 157.35 72.554 154.535 71.702C153.891 71.5292 153.307 71.1829 152.846 70.7008C152.386 70.2187 152.067 69.6194 151.923 68.9683C151.78 68.3171 151.819 67.6392 152.034 67.0083C152.25 66.3775 152.635 65.8181 153.147 65.391C157.168 61.9825 161.434 58.8742 165.911 56.091C168.6 54.429 171.438 56.467 171.35 59.454Z" fill="white"/>
<path d="M122.474 59.9C122.542 60.6506 122.378 61.4039 122.004 62.0584C121.63 62.7129 121.065 63.237 120.384 63.56C119.666 64.0141 118.803 64.1794 117.968 64.0227C117.133 63.8659 116.388 63.3986 115.884 62.715C112.714 58.684 109.636 54.575 106.693 50.377C106.26 49.7128 106.044 48.9306 106.075 48.1385C106.106 47.3463 106.382 46.5832 106.865 45.9545C107.347 45.3258 108.014 44.8625 108.771 44.6284C109.528 44.3944 110.34 44.4013 111.093 44.648C112.748 45.134 122.4 58.083 122.474 59.9Z" fill="white"/>
</svg>
