<svg width="34" height="34" viewBox="0 0 34 34" fill="none" xmlns="http://www.w3.org/2000/svg">
<path d="M18.9 30.5046L16.85 32.0222V18.2116L31.05 10.0669V19.2234C31.05 19.5269 31.25 19.7293 31.55 19.7293C31.85 19.7293 32.05 19.5269 32.05 19.2234V9.20694C32.05 9.05517 31.95 8.85282 31.8 8.75165C31.65 8.70106 16.7 0.657528 16.55 0.556351C16.4 0.455175 16.2 0.455175 16.1 0.556351L0.8 9.00459C0.65 9.10576 0.5 9.30812 0.5 9.45988V24.2316C0.5 24.434 0.6 24.5858 0.75 24.6869L16.05 33.4387C16.25 33.5399 16.45 33.5399 16.6 33.3881L19.45 31.314C19.65 31.1622 19.7 30.8587 19.55 30.6058C19.4 30.4034 19.1 30.3528 18.9 30.5046ZM16.3 17.3516L11.05 14.4175L25.5 6.47518L30.5 9.25753L16.3 17.3516ZM24.4 5.96929L9.75 14.0128C9.6 14.114 9.5 14.2658 9.5 14.4681V18.7175L6.8 17.1999V12.6469L21.65 4.45165L24.4 5.96929ZM16.3 1.56812L20.55 3.89517L6.3 11.8375L2.05 9.51047L16.3 1.56812ZM1.5 10.3199L5.8 12.6975V17.554C5.8 17.7564 5.9 17.9081 6.05 18.0093L9.75 20.0834C9.9 20.1846 10.1 20.1846 10.25 20.0834C10.4 19.9822 10.5 19.8305 10.5 19.6281V15.3281L15.85 18.2622V32.174L1.5 23.9281V10.3199Z" fill="#089D49"/>
<path d="M33.0503 25.0917L31.7503 24.8893C31.6003 24.3328 31.4003 23.827 31.1003 23.3211L31.9003 22.2587C32.0503 22.0564 32.0503 21.7528 31.8503 21.5505L30.7503 20.4375C30.5503 20.2352 30.3003 20.2352 30.1003 20.387L29.0503 21.247C28.5503 20.9434 28.0503 20.7411 27.5003 20.5893L27.3003 19.274C27.2503 19.0211 27.0503 18.8187 26.8003 18.8187H25.2503C25.0003 18.8187 24.8003 19.0211 24.7503 19.274L24.5503 20.5893C24.0003 20.7411 23.5003 20.9434 23.0003 21.247L21.9503 20.4375C21.7503 20.2858 21.4503 20.2858 21.3003 20.4881L20.2003 21.6011C20.0003 21.8034 20.0003 22.0564 20.1503 22.2587L20.9503 23.3211C20.6503 23.827 20.4503 24.3328 20.3003 24.8893L19.0003 25.0917C18.7503 25.1423 18.5503 25.3446 18.5503 25.5975V27.1658C18.5503 27.4187 18.7503 27.6211 19.0003 27.6717L20.3003 27.874C20.4503 28.4305 20.6503 28.9364 20.9503 29.4423L20.1503 30.5046C20.0003 30.707 20.0003 31.0105 20.2003 31.1623L21.3003 32.2752C21.5003 32.4775 21.7503 32.4775 21.9503 32.3258L23.0003 31.5164C23.5003 31.8199 24.0003 32.0223 24.5503 32.174L24.7503 33.4893C24.8003 33.7423 25.0003 33.9446 25.2503 33.9446H26.8003C27.0503 33.9446 27.2503 33.7423 27.3003 33.4893L27.5003 32.174C28.0503 32.0223 28.5503 31.8199 29.0503 31.5164L30.1003 32.3258C30.2003 32.3764 30.3003 32.427 30.4003 32.427C30.5503 32.427 30.7003 32.3764 30.8003 32.2752L31.9003 31.1623C32.1003 30.9599 32.1003 30.707 31.9503 30.5046L31.1503 29.4423C31.4503 28.9364 31.6503 28.4305 31.8003 27.874L33.1003 27.6717C33.3503 27.6211 33.5503 27.4187 33.5503 27.1658V25.5975C33.5003 25.3446 33.3003 25.0917 33.0503 25.0917ZM32.5003 26.7105L31.3003 26.8623C31.1003 26.9128 30.9003 27.0646 30.8503 27.267C30.7503 27.9246 30.4503 28.5317 30.1003 29.1387C30.0003 29.3411 30.0003 29.5434 30.1003 29.7458L30.8503 30.7575L30.3503 31.2634L29.3503 30.5046C29.2003 30.3528 28.9503 30.3528 28.7503 30.5046C28.2003 30.9093 27.6003 31.1623 26.9503 31.2634C26.7503 31.314 26.6003 31.4658 26.5503 31.7187L26.4503 32.8823H25.7503L25.6003 31.6175C25.5503 31.4152 25.4003 31.2128 25.2003 31.1623C24.5503 31.0105 23.9503 30.7575 23.4003 30.4034C23.2003 30.3023 23.0003 30.3023 22.8003 30.4034L21.8003 31.1623L21.3003 30.6564L22.0503 29.6952C22.2003 29.5434 22.2003 29.2399 22.0503 29.0881C21.7003 28.5317 21.4503 27.9246 21.3003 27.267C21.2503 27.0646 21.1003 26.9128 20.8503 26.8623L19.6503 26.7105V26.0023L20.8503 25.8505C21.0503 25.7999 21.2503 25.6481 21.3003 25.4458C21.4003 24.7881 21.7003 24.1811 22.0503 23.574C22.1503 23.3717 22.1503 23.1693 22.0503 22.967L21.3003 21.9552L21.8003 21.4493L22.7503 22.2081C22.9003 22.3599 23.2003 22.3599 23.3503 22.2081C23.9003 21.854 24.5003 21.6011 25.1503 21.4493C25.3503 21.3987 25.5003 21.247 25.5503 20.994L25.7003 19.7293H26.4003L26.5503 20.994C26.6003 21.1964 26.7503 21.3987 26.9503 21.4493C27.6003 21.6011 28.2003 21.854 28.7503 22.2081C28.9503 22.3093 29.1503 22.3093 29.3503 22.2081L30.3503 21.4493L30.8503 21.9552L30.1003 22.967C29.9503 23.1187 29.9503 23.3717 30.1003 23.574C30.4503 24.1305 30.7503 24.7375 30.8503 25.4458C30.9003 25.6481 31.0503 25.7999 31.3003 25.8505L32.5003 26.0023V26.7105Z" fill="#089D49"/>
<path d="M26.1003 22.5118C24.0003 22.5118 22.3003 24.2318 22.3003 26.3565C22.3003 28.4813 24.0003 30.2013 26.1003 30.2013C28.2003 30.2013 29.9003 28.4813 29.9003 26.3565C29.9003 24.2318 28.2003 22.5118 26.1003 22.5118ZM26.1003 29.1895C24.5503 29.1895 23.3003 27.9248 23.3003 26.3565C23.3003 24.7883 24.5503 23.5236 26.1003 23.5236C27.6503 23.5236 28.9003 24.7883 28.9003 26.3565C28.9003 27.9248 27.6503 29.1895 26.1003 29.1895Z" fill="#089D49"/>
</svg>
