<svg width="35" height="28" viewBox="0 0 35 28" fill="none" xmlns="http://www.w3.org/2000/svg">
<path d="M11.7188 16.125H23.2812C23.4346 16.125 23.5816 16.0644 23.69 15.9566C23.7985 15.8488 23.8594 15.7025 23.8594 15.55V9.22502C23.8594 8.76752 23.6766 8.32876 23.3514 8.00526C23.0261 7.68176 22.585 7.50002 22.125 7.50002H19.8125V6.62084C20.3361 6.15504 20.7052 5.54208 20.8709 4.86308C21.0366 4.18408 20.9911 3.47105 20.7404 2.81833C20.4897 2.16561 20.0457 1.60398 19.4671 1.20775C18.8885 0.811517 18.2025 0.599365 17.5 0.599365C16.7975 0.599365 16.1115 0.811517 15.5329 1.20775C14.9543 1.60398 14.5103 2.16561 14.2596 2.81833C14.0089 3.47105 13.9634 4.18408 14.1291 4.86308C14.2948 5.54208 14.6639 6.15504 15.1875 6.62084V7.50002H12.875C12.415 7.50002 11.9739 7.68176 11.6486 8.00526C11.3234 8.32876 11.1406 8.76752 11.1406 9.22502V15.55C11.1406 15.7025 11.2015 15.8488 11.31 15.9566C11.4184 16.0644 11.5654 16.125 11.7188 16.125ZM12.2969 9.22502C12.2969 9.07252 12.3578 8.92626 12.4662 8.81843C12.5746 8.7106 12.7217 8.65002 12.875 8.65002H15.7656C15.919 8.65002 16.066 8.58944 16.1744 8.4816C16.2828 8.37377 16.3438 8.22752 16.3438 8.07502V6.35002C16.3438 6.26075 16.3229 6.17271 16.2827 6.09287C16.2426 6.01303 16.1843 5.94358 16.1125 5.89002C15.7242 5.60038 15.4374 5.19658 15.2927 4.7358C15.148 4.27503 15.1527 3.78065 15.3062 3.32269C15.4597 2.86474 15.7541 2.46642 16.1479 2.18416C16.5416 1.9019 17.0146 1.75002 17.5 1.75002C17.9854 1.75002 18.4584 1.9019 18.8521 2.18416C19.2459 2.46642 19.5403 2.86474 19.6938 3.32269C19.8473 3.78065 19.852 4.27503 19.7073 4.7358C19.5626 5.19658 19.2758 5.60038 18.8875 5.89002C18.8157 5.94358 18.7574 6.01303 18.7173 6.09287C18.6771 6.17271 18.6562 6.26075 18.6562 6.35002V8.07502C18.6562 8.22752 18.7172 8.37377 18.8256 8.4816C18.934 8.58944 19.081 8.65002 19.2344 8.65002H22.125C22.2783 8.65002 22.4254 8.7106 22.5338 8.81843C22.6422 8.92626 22.7031 9.07252 22.7031 9.22502V14.975H12.2969V9.22502Z" fill="#089D49"/>
<path d="M9.98438 14.9751H1.3125V11.5251C1.3125 11.3726 1.37341 11.2263 1.48183 11.1185C1.59025 11.0106 1.7373 10.9501 1.89062 10.9501H4.20312C4.35645 10.9501 4.5035 10.8895 4.61192 10.7817C4.72034 10.6738 4.78125 10.5276 4.78125 10.3751V8.65007C4.78125 8.5608 4.76035 8.47276 4.72022 8.39292C4.68008 8.31308 4.6218 8.24363 4.55 8.19007C4.16172 7.90043 3.8749 7.49662 3.73019 7.03585C3.58547 6.57508 3.59019 6.0807 3.74367 5.62274C3.89715 5.16479 4.19162 4.76647 4.58536 4.48421C4.9791 4.20195 5.45215 4.05007 5.9375 4.05007C6.42285 4.05007 6.8959 4.20195 7.28964 4.48421C7.68338 4.76647 7.97785 5.16479 8.13133 5.62274C8.28481 6.0807 8.28953 6.57508 8.14481 7.03585C8.0001 7.49662 7.71328 7.90043 7.325 8.19007C7.2532 8.24363 7.19492 8.31308 7.15478 8.39292C7.11465 8.47276 7.09375 8.5608 7.09375 8.65007V10.3751C7.09375 10.5276 7.15466 10.6738 7.26308 10.7817C7.3715 10.8895 7.51855 10.9501 7.67188 10.9501H9.98438V9.80007H8.25V8.92089C8.77362 8.45508 9.14269 7.84213 9.30839 7.16313C9.47408 6.48413 9.42858 5.77109 9.17791 5.11838C8.92724 4.46566 8.48321 3.90403 7.90459 3.5078C7.32596 3.11157 6.64001 2.89941 5.9375 2.89941C5.23499 2.89941 4.54904 3.11157 3.97041 3.5078C3.39179 3.90403 2.94776 4.46566 2.69709 5.11838C2.44642 5.77109 2.40092 6.48413 2.56661 7.16313C2.73231 7.84213 3.10138 8.45508 3.625 8.92089V9.80007H1.89062C1.43064 9.80007 0.989495 9.98181 0.664237 10.3053C0.338978 10.6288 0.15625 11.0676 0.15625 11.5251V15.5501C0.15625 15.7026 0.217159 15.8488 0.325579 15.9567C0.433998 16.0645 0.581047 16.1251 0.734375 16.1251H9.98438V14.9751Z" fill="#089D49"/>
<path d="M33.1094 9.79998H31.375V8.92138C31.8986 8.45557 32.2677 7.84262 32.4334 7.16362C32.5991 6.48462 32.5536 5.77158 32.3029 5.11887C32.0522 4.46615 31.6082 3.90452 31.0296 3.50829C30.451 3.11205 29.765 2.8999 29.0625 2.8999C28.36 2.8999 27.674 3.11205 27.0954 3.50829C26.5168 3.90452 26.0728 4.46615 25.8221 5.11887C25.5714 5.77158 25.5259 6.48462 25.6916 7.16362C25.8573 7.84262 26.2264 8.45557 26.75 8.92138V9.79998H25.0156V10.95H27.3281C27.4815 10.95 27.6285 10.8894 27.7369 10.7816C27.8453 10.6737 27.9062 10.5275 27.9062 10.375V8.64998C27.9062 8.56071 27.8854 8.47267 27.8452 8.39283C27.8051 8.31299 27.7468 8.24354 27.675 8.18998C27.3949 7.98108 27.1662 7.71166 27.0061 7.40204C26.8459 7.09242 26.7585 6.75068 26.7505 6.40258C26.7425 6.05448 26.8141 5.70912 26.9598 5.39253C27.1055 5.07594 27.3216 4.79639 27.5918 4.57496C27.8296 4.38043 28.1041 4.2351 28.3992 4.14751C28.6942 4.05992 29.0039 4.03182 29.31 4.06486C29.6162 4.0979 29.9126 4.19142 30.1819 4.33993C30.4512 4.48844 30.688 4.68895 30.8783 4.92969C31.0687 5.17044 31.2088 5.44657 31.2904 5.74188C31.372 6.0372 31.3935 6.34575 31.3536 6.64943C31.3137 6.95312 31.2132 7.24582 31.058 7.51036C30.9029 7.77491 30.6962 8.00596 30.45 8.18998C30.3782 8.24354 30.3199 8.31299 30.2798 8.39283C30.2396 8.47267 30.2188 8.56071 30.2188 8.64998V10.375C30.2188 10.5275 30.2797 10.6737 30.3881 10.7816C30.4965 10.8894 30.6435 10.95 30.7969 10.95H33.1094C33.2627 10.95 33.4098 11.0106 33.5182 11.1184C33.6266 11.2262 33.6875 11.3725 33.6875 11.525V14.975H25.0156V16.125H34.2656C34.419 16.125 34.566 16.0644 34.6744 15.9566C34.7828 15.8487 34.8438 15.7025 34.8438 15.55V11.525C34.8438 11.0675 34.661 10.6287 34.3358 10.3052C34.0105 9.98172 33.5694 9.79998 33.1094 9.79998Z" fill="#089D49"/>
<path d="M16.922 17.8501C16.9229 18.6124 17.2278 19.3431 17.7697 19.8821C18.3116 20.421 19.0463 20.7242 19.8126 20.7251H21.547V21.3674L17.5279 21.8671L12.5866 20.7746L11.5495 19.743C10.9806 19.1786 10.2099 18.8617 9.40637 18.8617C8.60285 18.8617 7.83214 19.1786 7.26326 19.743C7.15488 19.8509 7.09399 19.9971 7.09399 20.1496C7.09399 20.302 7.15488 20.4483 7.26326 20.5561L11.3101 24.5811C11.3655 24.636 11.4313 24.6794 11.5038 24.7087L17.2851 27.0087C17.3535 27.0359 17.4265 27.0499 17.5001 27.0501C17.5321 27.0503 17.564 27.0476 17.5955 27.0421L24.4856 25.9001H31.3751V24.7501H26.7501V18.4251H31.3751V17.2751H17.5001C17.3468 17.2751 17.1997 17.3357 17.0913 17.4436C16.9829 17.5514 16.922 17.6976 16.922 17.8501ZM25.5939 18.4251V24.7501H24.4376C24.4056 24.75 24.3737 24.7527 24.3422 24.7582L17.5649 25.8817L12.0438 23.6852L8.55421 20.214C8.90739 20.0356 9.30825 19.9729 9.69942 20.0349C10.0906 20.0968 10.452 20.2803 10.732 20.559L11.8883 21.709C11.9658 21.7865 12.0641 21.8402 12.1715 21.8636L17.3747 23.0136C17.4393 23.0282 17.5061 23.0313 17.5718 23.0228L22.1968 22.4478C22.337 22.4304 22.4659 22.3625 22.5592 22.257C22.6525 22.1515 22.7038 22.0157 22.7032 21.8751V20.1501C22.7032 19.9976 22.6423 19.8514 22.5339 19.7436C22.4255 19.6357 22.2785 19.5751 22.1251 19.5751H19.8126C19.454 19.5747 19.1043 19.464 18.8115 19.2581C18.5187 19.0522 18.2971 18.7612 18.1771 18.4251H25.5939Z" fill="#089D49"/>
</svg>
