<svg width="32" height="34" viewBox="0 0 32 34" fill="none" xmlns="http://www.w3.org/2000/svg">
<path d="M29.2455 7.04536L17.9101 0.569516C16.7499 -0.0929962 15.2493 -0.0929962 14.0892 0.569516L2.75377 7.04536C1.57539 7.71878 0.843506 8.97312 0.843506 10.3196V23.2709C0.843506 24.617 1.57539 25.8717 2.75377 26.5451L14.0892 33.0206C14.669 33.3518 15.3299 33.527 15.9994 33.527C16.669 33.527 17.3298 33.3518 17.9097 33.0206L29.2451 26.5451C30.4238 25.8717 31.1553 24.617 31.1553 23.2709V10.3196C31.1561 8.97312 30.4238 7.71878 29.2455 7.04536ZM30.0161 23.2709C30.0161 24.2154 29.5023 25.096 28.6758 25.5683L17.3404 32.0437C16.5269 32.5085 15.4731 32.5085 14.6595 32.0437L3.32415 25.5683C2.49727 25.0956 1.98389 24.2154 1.98389 23.2709V10.3196C1.98389 9.37506 2.49765 8.49484 3.32415 8.02221L14.6595 1.54674C15.0661 1.31437 15.5297 1.19142 15.9998 1.19142C16.4699 1.19142 16.9335 1.31437 17.3401 1.54636L28.6755 8.02221C29.5023 8.49484 30.0157 9.37506 30.0157 10.3196V23.2709H30.0161ZM22.244 11.3088L9.05873 21.3886C8.80982 21.5789 8.76385 21.9335 8.95613 22.1797C9.06823 22.3237 9.23695 22.3989 9.40757 22.3989C9.52917 22.3989 9.65229 22.3606 9.75565 22.2813L22.9405 12.2015C23.1894 12.0112 23.2354 11.6566 23.0431 11.4103C22.8512 11.1637 22.4921 11.1186 22.244 11.3088ZM13.203 14.2834C13.9896 14.2834 14.7295 13.9799 15.2854 13.4295C16.4334 12.2932 16.4334 10.4444 15.2854 9.30851C14.7291 8.75804 13.9896 8.45499 13.2034 8.45499C12.4168 8.45499 11.6769 8.75804 11.121 9.30851C9.97301 10.4444 9.97301 12.2932 11.121 13.4295C11.6769 13.9799 12.416 14.2834 13.203 14.2834ZM11.9266 10.1064C12.2674 9.76911 12.7208 9.58336 13.203 9.58336C13.6852 9.58336 14.1382 9.76911 14.479 10.1064C15.1828 10.8027 15.1828 11.9356 14.479 12.6323C14.1382 12.9696 13.6845 13.1557 13.2026 13.1557C12.7208 13.1557 12.2674 12.97 11.9266 12.6323C11.2232 11.9356 11.2232 10.8027 11.9266 10.1064ZM18.7966 19.3067C18.01 19.3067 17.2701 19.6102 16.7142 20.1606C15.5662 21.2969 15.5662 23.1457 16.7142 24.2816C17.2705 24.832 18.01 25.1351 18.7966 25.1351C19.5832 25.1351 20.3231 24.832 20.8786 24.2816C22.0266 23.1453 22.0266 21.2969 20.8786 20.1606C20.3227 19.6102 19.5836 19.3067 18.7966 19.3067ZM20.073 23.4841C19.7322 23.8214 19.2788 24.0071 18.797 24.0071C18.3144 24.0071 17.8614 23.8214 17.5206 23.4841C16.8168 22.7877 16.8168 21.6548 17.5206 20.9581C17.8614 20.6208 18.3151 20.4347 18.797 20.4347C19.2788 20.4347 19.7322 20.6205 20.073 20.9581C20.7764 21.6545 20.7764 22.7877 20.073 23.4841Z" fill="#089D49"/>
</svg>
