<svg width="48" height="48" viewBox="0 0 48 48" fill="none" xmlns="http://www.w3.org/2000/svg">
<path d="M36 0C33.6266 0 31.3066 0.703788 29.3332 2.02236C27.3598 3.34094 25.8217 5.21509 24.9135 7.4078C24.0052 9.60051 23.7676 12.0133 24.2306 14.3411C24.6936 16.6689 25.8365 18.8071 27.5147 20.4853C29.193 22.1635 31.3312 23.3064 33.6589 23.7694C35.9867 24.2324 38.3995 23.9948 40.5922 23.0866C42.7849 22.1783 44.6591 20.6402 45.9776 18.6668C47.2962 16.6935 48 14.3734 48 12C47.9958 8.81868 46.7302 5.76886 44.4807 3.51932C42.2312 1.26979 39.1813 0.00416728 36 0V0ZM36.75 22.47V21H35.25V22.47C32.733 22.2861 30.3661 21.2029 28.5816 19.4184C26.7971 17.6339 25.7139 15.267 25.53 12.75H27V11.25H25.53C25.7139 8.733 26.7971 6.36613 28.5816 4.58159C30.3661 2.79706 32.733 1.71393 35.25 1.53V3H36.75V1.53C39.267 1.71393 41.6339 2.79706 43.4184 4.58159C45.2029 6.36613 46.2861 8.733 46.47 11.25H45V12.75H46.47C46.2861 15.267 45.2029 17.6339 43.4184 19.4184C41.6339 21.2029 39.267 22.2861 36.75 22.47Z" fill="#089D49"/>
<path d="M44.19 11.7151C44.1529 11.6242 44.0966 11.5424 44.025 11.4751L44.0325 11.4676L41.7825 9.2176L40.7175 10.2826L41.6925 11.2501H38.115C38.0037 10.9352 37.8234 10.6491 37.5872 10.4129C37.351 10.1767 37.065 9.99639 36.75 9.88511V7.8076L37.7175 8.7826L38.7825 7.7176L36.5325 5.4676C36.4271 5.36354 36.2931 5.29304 36.1476 5.26501C36.0021 5.23698 35.8516 5.25267 35.715 5.3101C35.6241 5.34728 35.5423 5.40355 35.475 5.4751L35.4675 5.4676L33.2175 7.7176L34.2825 8.7826L35.25 7.8076V9.88511C34.8903 10.0104 34.5682 10.2251 34.3141 10.5089C34.06 10.7927 33.8821 11.1363 33.797 11.5077C33.712 11.879 33.7227 12.2659 33.828 12.632C33.9334 12.9981 34.1299 13.3315 34.3993 13.6008C34.6687 13.8702 35.002 14.0668 35.3681 14.1721C35.7342 14.2775 36.1211 14.2881 36.4924 14.2031C36.8638 14.1181 37.2075 13.9402 37.4913 13.686C37.7751 13.4319 37.9897 13.1099 38.115 12.7501H41.6925L40.7175 13.7176L41.7825 14.7826L44.0325 12.5326C44.1366 12.4271 44.2071 12.2932 44.2351 12.1477C44.2632 12.0022 44.2475 11.8517 44.19 11.7151ZM36 12.7501C35.8517 12.7501 35.7067 12.7061 35.5834 12.6237C35.46 12.5413 35.3639 12.4242 35.3071 12.2871C35.2504 12.1501 35.2355 11.9993 35.2644 11.8538C35.2934 11.7083 35.3648 11.5747 35.4697 11.4698C35.5746 11.3649 35.7082 11.2935 35.8537 11.2645C35.9992 11.2356 36.15 11.2504 36.287 11.3072C36.4241 11.364 36.5412 11.4601 36.6236 11.5834C36.706 11.7068 36.75 11.8518 36.75 12.0001C36.75 12.199 36.671 12.3898 36.5304 12.5304C36.3897 12.6711 36.1989 12.7501 36 12.7501Z" fill="#089D49"/>
<path d="M37.5 30.0001H22.5C22.3011 30.0001 22.1103 30.0791 21.9697 30.2197C21.829 30.3604 21.75 30.5512 21.75 30.7501V40.9426L17.2875 36.4726C16.1354 35.3158 14.5974 34.6243 12.9675 34.5301C12.9525 34.5301 12.9375 34.5226 12.9225 34.5226C12.9075 34.5226 12.8775 34.5151 12.855 34.5151C12.8206 34.5064 12.7854 34.5014 12.75 34.5001H12.5175C12.3244 34.5008 12.139 34.5761 12 34.7101V33.7501C12.9946 33.7501 13.9484 33.355 14.6517 32.6517C15.3549 31.9485 15.75 30.9946 15.75 30.0001V27.7501C16.3462 27.7483 16.9175 27.5107 17.339 27.0891C17.7606 26.6675 17.9982 26.0963 18 25.5001C18.0016 25.2439 17.9558 24.9896 17.865 24.7501H20.25C20.8467 24.7501 21.419 24.513 21.841 24.0911C22.2629 23.6691 22.5 23.0968 22.5 22.5001C22.5 21.9033 22.2629 21.331 21.841 20.9091C21.419 20.4871 20.8467 20.2501 20.25 20.2501H16.11C15.5617 18.6711 14.4465 17.3522 12.9807 16.549C11.5149 15.7459 9.803 15.5159 8.17719 15.9037C6.55137 16.2914 5.12757 17.2693 4.18202 18.6476C3.23647 20.0258 2.8366 21.7062 3.06 23.3626C2.55268 23.5293 2.1212 23.871 1.84269 24.3267C1.56418 24.7823 1.45681 25.3221 1.53978 25.8497C1.62274 26.3772 1.89062 26.858 2.29554 27.2062C2.70045 27.5543 3.216 27.7471 3.75 27.7501V30.0001C3.75 30.9946 4.14509 31.9485 4.84835 32.6517C5.55161 33.355 6.50544 33.7501 7.5 33.7501V34.9351L7.2825 34.7176C7.13949 34.5794 6.94883 34.5016 6.75 34.5001C4.96064 34.5029 3.24537 35.2149 1.9801 36.4802C0.714827 37.7454 0.00277697 39.4607 0 41.2501L0 48.0001H1.5V41.2501C1.50171 39.91 2.01498 38.6212 2.93497 37.6468C3.85496 36.6725 5.11225 36.0861 6.45 36.0076L7.5 37.0576L9.2175 38.7826C9.35967 38.922 9.55086 39.0001 9.75 39.0001C9.94914 39.0001 10.1403 38.922 10.2825 38.7826L13.035 36.0301C14.2417 36.1422 15.3703 36.676 16.2225 37.5376L21.9675 43.2826C22.1105 43.4207 22.3012 43.4986 22.5 43.5001H27V46.5001H20.5575L16.2825 42.2176C16.177 42.1135 16.0431 42.043 15.8976 42.015C15.7521 41.9869 15.6016 42.0026 15.465 42.0601C15.3273 42.1152 15.2093 42.2105 15.1264 42.3336C15.0435 42.4566 14.9994 42.6017 15 42.7501V48.0001H16.5V44.5576L19.7175 47.7826C19.8605 47.9207 20.0512 47.9986 20.25 48.0001H30C30.1989 48.0001 30.3897 47.9211 30.5303 47.7804C30.671 47.6398 30.75 47.449 30.75 47.2501H33.75C34.7446 47.2501 35.6984 46.855 36.4016 46.1517C37.1049 45.4485 37.5 44.4946 37.5 43.5001C37.5 43.3012 37.421 43.1104 37.2803 42.9697C37.1397 42.8291 36.9489 42.7501 36.75 42.7501H30.75C30.75 42.5512 30.671 42.3604 30.5303 42.2197C30.3897 42.0791 30.1989 42.0001 30 42.0001H37.5C37.6989 42.0001 37.8897 41.9211 38.0303 41.7804C38.171 41.6398 38.25 41.449 38.25 41.2501V30.7501C38.25 30.5512 38.171 30.3604 38.0303 30.2197C37.8897 30.0791 37.6989 30.0001 37.5 30.0001ZM16.455 21.7501H20.25C20.4489 21.7501 20.6397 21.8291 20.7803 21.9697C20.921 22.1104 21 22.3012 21 22.5001C21 22.699 20.921 22.8898 20.7803 23.0304C20.6397 23.1711 20.4489 23.2501 20.25 23.2501H16.455C16.4847 23.0012 16.4997 22.7507 16.5 22.5001C16.5002 22.2494 16.4852 21.9989 16.455 21.7501ZM15.75 24.7501C15.9489 24.7501 16.1397 24.8291 16.2803 24.9697C16.421 25.1104 16.5 25.3012 16.5 25.5001C16.5 25.699 16.421 25.8898 16.2803 26.0304C16.1397 26.1711 15.9489 26.2501 15.75 26.2501V24.7501ZM3.75 26.2501C3.55109 26.2501 3.36032 26.1711 3.21967 26.0304C3.07902 25.8898 3 25.699 3 25.5001C3 25.3012 3.07902 25.1104 3.21967 24.9697C3.36032 24.8291 3.55109 24.7501 3.75 24.7501V26.2501ZM4.56 23.2501C4.52169 23.0019 4.50164 22.7512 4.5 22.5001C4.50163 21.3094 4.90796 20.1546 5.65233 19.2252C6.39669 18.2959 7.43485 17.6472 8.59646 17.3856C9.75806 17.1239 10.9741 17.2649 12.045 17.7855C13.1159 18.306 13.9781 19.175 14.49 20.2501C14.7205 20.7223 14.8725 21.2289 14.94 21.7501C14.9826 21.9978 15.0027 22.2488 15 22.5001C14.9984 22.7512 14.9783 23.0019 14.94 23.2501H4.56ZM10.5 36.4426L9.75 37.1926L9 36.4426V33.7501H10.5V36.4426ZM7.5 32.2501C6.90381 32.2483 6.33255 32.0107 5.91098 31.5891C5.48941 31.1675 5.25178 30.5963 5.25 30.0001V24.7501H14.25V30.0001C14.2482 30.5963 14.0106 31.1675 13.589 31.5891C13.1675 32.0107 12.5962 32.2483 12 32.2501H7.5ZM30.75 44.2501H35.8725C35.716 44.6881 35.4282 45.0672 35.0484 45.3356C34.6685 45.6041 34.2151 45.7488 33.75 45.7501H30.75V44.2501ZM29.25 46.5001H28.5V43.5001H29.25V46.5001ZM36.75 40.5001H23.25V31.5001H36.75V40.5001Z" fill="#089D49"/>
<path d="M34.4325 37.5C34.277 36.5798 33.8389 35.7309 33.179 35.071C32.5191 34.4111 31.6702 33.973 30.75 33.8175V33H29.25V33.8175C28.3298 33.973 27.4809 34.4111 26.821 35.071C26.1611 35.7309 25.723 36.5798 25.5675 37.5H24.75V39H35.25V37.5H34.4325ZM27.0975 37.5C27.2653 36.858 27.6412 36.2898 28.1664 35.8842C28.6916 35.4786 29.3364 35.2586 30 35.2586C30.6636 35.2586 31.3084 35.4786 31.8336 35.8842C32.3588 36.2898 32.7347 36.858 32.9025 37.5H27.0975Z" fill="#089D49"/>
</svg>
